<?xml version="1.0" encoding="utf-8"?>
<!-- Generator: Adobe Illustrator 21.1.0, SVG Export Plug-In . SVG Version: 6.00 Build 0)  -->
<svg version="1.1" id="Capa_1" xmlns="http://www.w3.org/2000/svg" xmlns:xlink="http://www.w3.org/1999/xlink" x="0px" y="0px"
	 viewBox="0 0 541 356.5" style="enable-background:new 0 0 541 356.5;" xml:space="preserve">
<style type="text/css">
	.st0{fill:#EC1217;}
	.st1{fill:#FFFFFF;}
	.st2{fill:#FFFFFF;stroke:#4869A8;stroke-width:5;stroke-miterlimit:10;}
	.st3{fill:#FFFFFF;stroke:#4869A8;stroke-width:4;stroke-miterlimit:10;}
	.st4{fill:#224A96;}
</style>
<polygon id="XMLID_217_" class="st0" points="185.4,261.7 179,273.1 115.6,273.1 89,207.2 125,175.1 95.6,175.1 95.6,159.1 
	103,157.1 137.6,157.1 147,163.6 180.3,140.7 346.3,135.2 390.6,190.5 395.6,203.6 395.6,235.1 381,273.1 325.6,273.1 319.6,260.6 
	"/>
<rect id="XMLID_216_" x="147.4" y="208.7" class="st1" width="36" height="6"/>
<polygon id="XMLID_208_" class="st1" points="293.4,214.7 329.4,214.7 329.4,209.1 293.4,208.1 "/>
<rect id="XMLID_207_" x="213.4" y="240.7" class="st1" width="68" height="12"/>
<polygon id="XMLID_206_" class="st1" points="160.4,163.9 190.1,144.7 337.6,144.7 349.1,164.7 317.6,164.7 306.1,148.7 
	277.6,148.7 262.6,166.7 237.6,166.7 224.1,148.9 196.6,149.2 180.6,166.3 "/>
<ellipse id="XMLID_202_" class="st2" cx="189.4" cy="122.9" rx="20.2" ry="17.2"/>
<ellipse id="XMLID_183_" class="st3" cx="126.4" cy="211" rx="13.2" ry="11.2"/>
<ellipse id="XMLID_176_" class="st3" cx="368.4" cy="233" rx="13.2" ry="11.2"/>
<ellipse id="XMLID_161_" class="st3" cx="121.4" cy="252.9" rx="20.2" ry="17.2"/>
<ellipse id="XMLID_157_" class="st3" cx="233.8" cy="81.6" rx="8.7" ry="7.3"/>
<ellipse id="XMLID_153_" class="st3" cx="207.8" cy="95.6" rx="8.7" ry="7.3"/>
<ellipse id="XMLID_149_" class="st3" cx="269.8" cy="133.6" rx="14.6" ry="12.4"/>
<ellipse id="XMLID_145_" class="st3" cx="293.8" cy="121.6" rx="14.6" ry="12.4"/>
<ellipse id="XMLID_141_" class="st3" cx="324.2" cy="141" rx="13" ry="11"/>
<path id="XMLID_134_" class="st3" d="M429.6,152.6c0,20.7-19.8,37.5-44.2,37.5s-44.2-16.8-44.2-37.5s19.8-37.5,44.2-37.5
	S429.6,131.9,429.6,152.6z"/>
<path id="XMLID_123_" class="st2" d="M179.6,108.6c0,20.7-19.8,37.5-44.2,37.5s-44.2-16.8-44.2-37.5s19.8-37.5,44.2-37.5
	S179.6,87.9,179.6,108.6z"/>
<ellipse id="XMLID_119_" class="st3" cx="336.2" cy="121" rx="13" ry="11"/>
<ellipse id="XMLID_110_" class="st3" cx="348.2" cy="141" rx="13" ry="11"/>
<ellipse id="XMLID_87_" class="st3" cx="414.9" cy="193.3" rx="19.7" ry="16.7"/>
<ellipse id="XMLID_35_" class="st3" cx="378.9" cy="249.3" rx="19.7" ry="16.7"/>
<ellipse id="XMLID_8_" class="st3" cx="381.4" cy="186.2" rx="16.2" ry="13.8"/>
<g id="XMLID_1_">
	<g>
		<path class="st4" d="M498.6,268.4c0,5.9-1.5,11.5-4.5,16.6c-3,5.1-7,9.2-12.2,12.1c-5.1,3-10.7,4.4-16.6,4.4
			c-5.9,0-11.4-1.5-16.6-4.4c-5.1-3-9.2-7-12.2-12.1c-3-5.1-4.5-10.7-4.5-16.6c0-5.9,1.5-11.5,4.5-16.6c3-5.1,7-9.2,12.2-12.2
			c5.1-3,10.7-4.4,16.6-4.4c5.9,0,11.5,1.5,16.6,4.4c5.1,3,9.2,7,12.2,12.2C497.1,257,498.6,262.5,498.6,268.4z M492.2,268.4
			c0-7.4-2.6-13.7-7.9-19c-5.2-5.2-11.6-7.9-19-7.9c-7.4,0-13.7,2.6-19,7.9c-5.2,5.2-7.9,11.6-7.9,19c0,7.4,2.6,13.7,7.9,19
			c5.2,5.2,11.6,7.9,19,7.9c7.4,0,13.7-2.6,19-7.9C489.5,282.1,492.2,275.8,492.2,268.4z M450.3,250.7h15.9c4.5,0,7.8,0.9,9.8,2.7
			c2,1.8,3,4.2,3,7.3c0,2.4-0.8,4.4-2.3,6.2c-1.5,1.7-4,3-7.3,3.8c1.4,0.5,2.4,1.1,3,1.7c0.9,0.8,1.8,2,2.8,3.6
			c0.1,0.1,2,3.5,5.7,10.3h-10.4c-3.4-6.8-5.7-10.8-6.8-12.1c-1.2-1.3-2.3-2-3.5-2c-0.3,0-0.6,0-1.1,0.1v14h-8.8L450.3,250.7
			L450.3,250.7z M459.1,265.7h3.8c2.6,0,4.4-0.4,5.4-1.2c1-0.8,1.6-1.9,1.6-3.2c0-1.3-0.5-2.4-1.5-3.2c-1-0.8-2.7-1.2-5.1-1.2h-4.2
			V265.7z"/>
	</g>
</g>
</svg>
