<svg id="Capa_1" data-name="Capa 1" xmlns="http://www.w3.org/2000/svg" viewBox="0 0 1761.534 356.507">
  <defs>
    <style>
      .cls-1 {
        fill: #f7f7f7;
      }

      .cls-2 {
        fill: none;
        stroke: #ed1e24;
        stroke-width: 9px;
      }

      .cls-2, .cls-5, .cls-6 {
        stroke-miterlimit: 10;
      }

      .cls-3 {
        fill: #ec1217;
      }

      .cls-4, .cls-5, .cls-6 {
        fill: #fff;
      }

      .cls-5, .cls-6 {
        stroke: #4869a8;
      }

      .cls-5 {
        stroke-width: 5px;
      }

      .cls-6 {
        stroke-width: 4px;
      }

      .cls-7 {
        fill: #224a96;
      }
    </style>
  </defs>
  <title>Logo vectorizado WEB</title>
  <g id="_Group_" data-name="&lt;Group&gt;">
    <g>
      <path id="_Compound_Path_" data-name="&lt;Compound Path&gt;" class="cls-1" d="M924.586,129.765a18.378,18.378,0,0,1,5.583.743,12.533,12.533,0,0,1,3.8,1.886,14.31,14.31,0,0,1,2.605,2.687q1.263,1.658,3.2,4.058,2.379,3.316,3.424,5.086a6.571,6.571,0,0,1,1.042,2.343Q943.2,153.2,942.3,159.254a128.583,128.583,0,0,1-1.936,13.145,28.509,28.509,0,0,0-1.042,3.544q.593,2.858.968,6.058t.521,6.4a48.784,48.784,0,0,1,.3,5.658q0,3.145-.3,7.144-.151,5.032-.3,8.173t-.149,4.286a12.741,12.741,0,0,0,.149,1.829,11.934,11.934,0,0,0,.6,2.285,35.92,35.92,0,0,0,1.042,4v7.2q.146,4.345,3.634,20.116t4.555,16.917a17.7,17.7,0,0,1,1.784-.687l11.6-16q.891-1.942,2.3-4.972t3.348-7.029q6.691-10.056,12.715-26.232a321.35,321.35,0,0,0,11.23-38.348,29.688,29.688,0,0,1,4.684-10.172,11.454,11.454,0,0,1,6.469-4.572l13.238-3.658a10.045,10.045,0,0,1,4.91,2.8,6.962,6.962,0,0,1,1.492,4.629,64.677,64.677,0,0,1-1.641,11.487q-1.641,7.945-5.051,19.945a61.2,61.2,0,0,1-.793,6.516q-.65,3.886-1.523,9.144-1.2,4.115-1.863,6.516a16.677,16.677,0,0,0-.668,2.972q0,2.974.148,6.8t.3,8.629q.3,5.83.3,9.716v5.486a110.691,110.691,0,0,0,.672,11.6q.521,3.943,1.414,3.943,1.488,0,4.684-4.915a126.472,126.472,0,0,0,7.8-14.858q3.721-7.544,6.766-14.288t5.43-12.687a8.674,8.674,0,0,0,2.379-3.543,21.21,21.21,0,0,0,1.188-5.829q2.379-4.913,4.609-10.345t4.758-11.258q1.488-3.429,3.2-8.573T1060.309,166l-1.93-4.8q.445-1.371,1.336-3.429a34.146,34.146,0,0,0,1.637-4.915,49.1,49.1,0,0,1,7.211-7.43q3.2-2.512,5.133-2.515a2.133,2.133,0,0,1,2.082,1.2,9.165,9.165,0,0,1,.6,3.829q0,6.973-.375,10.8a16.5,16.5,0,0,1-.965,4.972q-1.043,1.6-1.789,3.029c-.5.953-.891,1.733-1.191,2.343l1.938,5.6a30.274,30.274,0,0,0-2.086,5.772q-1.189,4.173-2.68,10.915-1.488,6.4-2.68,10.173a16.5,16.5,0,0,1-2.234,5.029,23.459,23.459,0,0,1-1.934,5.258q-1.488,3.086-3.574,7.315a24.464,24.464,0,0,0-1.934,4.629q-1.043,3.145-2.531,7.487-1.043,2.629-2.68,6.229t-3.723,8.744a18.349,18.349,0,0,0-2.9,4,33.32,33.32,0,0,0-2.605,6.286,48.847,48.847,0,0,1-2.754,5.315q-2.016,3.488-4.988,8.972a86.56,86.56,0,0,1-5.359,8.8c-1.492,2.059-2.531,3.2-3.129,3.43l-3.574,1.6a6.1,6.1,0,0,1-2.977,1.543,18.214,18.214,0,0,1-4.613.287,47.953,47.953,0,0,1-4.691,1.943,10.579,10.579,0,0,1-3.2.686,12.266,12.266,0,0,1-9.082-3.43q-3.428-3.428-4.914-10.517-.445-4.913-.969-9.887t-1.117-10.115q-.3-2.514-1.117-6.687a102.442,102.442,0,0,0-2.605-10q-3.123,4.573-6.477,9.43t-6.922,10.23q.146,1.028-2.082,5.029T965.6,274.24q-4.17,7.431-8.934,14.974A24.949,24.949,0,0,1,949.3,295.9a17.689,17.689,0,0,1-8.858,2.229q-2.388,0-4.625-2.857a34.534,34.534,0,0,1-4.476-8.687q-1.348-3.542-2.612-7.143t-2.61-7.374a19.564,19.564,0,0,0,1.044-2.629A26.083,26.083,0,0,1,925,265.1q-1.121-2.742-2.464-6.629-.447-2.4-1.193-6.173t-1.64-8.915q-.149-1.6-.3-3.258t-.3-3.257a9.531,9.531,0,0,0-.821-2.743,22.661,22.661,0,0,0-2.015-3.43,14.053,14.053,0,0,1-.521-3.371q-.223-2.685-.523-7.487a27.38,27.38,0,0,0-.9-6.458A5.243,5.243,0,0,0,912.094,210l-4.029-2.285a15.536,15.536,0,0,1-1.419-4.973,55.3,55.3,0,0,1-.521-8.286,190.623,190.623,0,0,1,2.011-26.976,272.842,272.842,0,0,1,6.029-29.6,10,10,0,0,1,10.422-8.115Z" transform="translate(-89 -107.282)"/>
      <path id="_Compound_Path_2" data-name="&lt;Compound Path&gt;" class="cls-1" d="M1075.7,259.5l13.549-6.857c.5-.381,1.09-.9,1.787-1.543a20.29,20.29,0,0,0,2.381-2.8,8.909,8.909,0,0,1,2.754-2.515,22.2,22.2,0,0,1,3.947-1.829,42.649,42.649,0,0,1,3.424-2.857q2.232-1.714,5.656-4,1.638-.686,4.17-2a43.645,43.645,0,0,0,5.508-3.485,160.947,160.947,0,0,1,23.748-14.745q10.2-4.913,17.2-4.915a10.389,10.389,0,0,1,5.732,1.258,4.035,4.035,0,0,1,1.861,3.543,7.954,7.954,0,0,1-1.117,4.229,8.729,8.729,0,0,1-3.5,3.086q-3.724,2.057-8.041,4.572a62.74,62.74,0,0,1-5.807,5.086,65.807,65.807,0,0,1-8.039,5.314q-1.491,1.487-2.531,2.629-.747.574-2.828,2.058t-5.51,3.43q-1.488,2.515-6.477,6.515t-13.324,9.6a40.147,40.147,0,0,0-3.723,3.657q-2.678,2.858-7,7.544l1.041,1.029a28.677,28.677,0,0,0,6.85-2.744,68.436,68.436,0,0,0,7.891-5.144q5.06-3.541,8.262-5.771a47.314,47.314,0,0,1,4.541-2.915l2.086-.914q1.04-.456,2.381-1.144a59.359,59.359,0,0,1,12.8-9.315,24.549,24.549,0,0,1,11.018-3.028,5.968,5.968,0,0,1,4.764,1.886,9.64,9.64,0,0,1,1.936,5.657q-.3,5.717-.3,10.974a8.757,8.757,0,0,0,2.605,6.572,9.474,9.474,0,0,0,7.221,2.914,6.263,6.263,0,0,0,2.605-.571,17.237,17.237,0,0,0,2.605-1.486q1.04-1.028,2.01-1.942t2.01-1.829c.395-.152.967-.418,1.711-.8a13.963,13.963,0,0,0,2.16-1.372q2.083,3.429,3.5,6a37.294,37.294,0,0,1,2.158,4.515q-3.425,2.4-6.773,4.973a82.332,82.332,0,0,1-7.072,4.857,41.965,41.965,0,0,1-8.635,3.943,27.584,27.584,0,0,1-8.338,1.314q-9.68,0-14.889-4.229t-6.1-12.8a6.513,6.513,0,0,0-.373-2.114,5.855,5.855,0,0,0-1.562-2.229q-.747.573-1.637,1.2t-2.086,1.657l-4.838,2.857q-2.9,1.714-6.773,4.116-5.215,4.113-8.785,6.742t-5.062,3.773a65.939,65.939,0,0,1-6.922,3.885q-3.946,1.945-8.859,4-3.126,1.257-5.359,2a11.86,11.86,0,0,1-3.275.742q-7.146,0-10.57-2.686t-3.426-8.287a11.13,11.13,0,0,1,1.713-5.887,20.609,20.609,0,0,1,5.137-5.428,12.918,12.918,0,0,0,.3-2.4,2.388,2.388,0,0,0-.371-1.2,17.138,17.138,0,0,0-.969-1.429l-2.01-3.6q-1.116-2-2.457-4.286a13,13,0,0,0,1.713-1.771Q1074.214,261.44,1075.7,259.5Z" transform="translate(-89 -107.282)"/>
      <path id="_Compound_Path_3" data-name="&lt;Compound Path&gt;" class="cls-1" d="M1185.432,264.524l.893-.8a9.4,9.4,0,0,1,2.605-3.429,24.946,24.946,0,0,1,5.732-3.658q4.913-2.4,7.668-3.886a14.707,14.707,0,0,0,3.35-2.172,12.512,12.512,0,0,0,1.787-1.943q1.635-.914,4.02-2.515t5.359-3.886a9.519,9.519,0,0,0,2.232-1.829,31.249,31.249,0,0,0,2.383-2.857q1.934-1.028,4.393-2.629t5.732-4.115q3.718-3.085,8.41-6.8t10.5-7.715a34.365,34.365,0,0,1,3.646-1.086,14.682,14.682,0,0,1,3.35-.4q6.7,0,10.051,2.458a8.2,8.2,0,0,1,3.35,7.029,22.435,22.435,0,0,1-.521,3.771q-.524,2.631-1.117,6.63-2.086,11.546-2.977,14.059t-6.254,15.773a48.206,48.206,0,0,0-2.457,5.372q-1.266,3.2-3.051,7.774a3.16,3.16,0,0,0,1.488.914,9.625,9.625,0,0,0,3.723-1.543q2.678-1.544,7.146-4.631,5.209-3.656,8.188-5.6t3.723-2.286q1.787,3.086,3.275,5.658t2.531,4.857a21.625,21.625,0,0,0-3.5,2.059,23.182,23.182,0,0,0-2.9,2.514q-3.126,1.6-7.221,3.658t-9.008,4.457q-2.232,1.717-6.029,4.172t-8.561,5.545l-2.83.457a20.616,20.616,0,0,1-3.945,3.314,15.022,15.022,0,0,1-3.35,1.6q-2.382.686-4.764,1.314t-5.062,1.314a3.549,3.549,0,0,1-2.381-1.484,4.622,4.622,0,0,1-.6-2.973,26.088,26.088,0,0,1-3.574-7.086,27.983,27.983,0,0,1-1.34-8.916,13.543,13.543,0,0,1,.148-1.943c.1-.686.2-1.295.3-1.828a18.562,18.562,0,0,1-1.043-3.543q0-3.432,3.424-5.66a13.885,13.885,0,0,1,7.742-2.229,3.362,3.362,0,0,1,3.2,1.771q.967,1.774,2.01,1.771t2.16-3.143a59.288,59.288,0,0,0,2.158-9.2,79.393,79.393,0,0,0,1.34-9.145q.3-3.883.3-5.943a2.865,2.865,0,0,0-.818-2.229,4.075,4.075,0,0,0-2.754-.743q-1.937,0-12.506,6.858t-29.479,20.459a20.171,20.171,0,0,1-1.713,1.943q-1.116,1.144-2.605,2.857a24.737,24.737,0,0,0-2.084-4.229Q1187.814,268.3,1185.432,264.524Z" transform="translate(-89 -107.282)"/>
      <path id="_Compound_Path_4" data-name="&lt;Compound Path&gt;" class="cls-1" d="M1278.633,264.524q3.275-2.169,5.063-3.429a34.758,34.758,0,0,0,2.828-2.172,26.331,26.331,0,0,0,3.871-3.314,5.491,5.491,0,0,0,1.637-2.857q1.342-3.885,3.127-9.716t4.615-13.487a60.653,60.653,0,0,0,2.9-5.772q1.562-3.485,3.35-7.829a52.215,52.215,0,0,1,10.422-18.859,17.028,17.028,0,0,0,2.084-2.572,33.769,33.769,0,0,0,2.084-3.6,40.715,40.715,0,0,1,2.9-4.286q1.857-2.457,4.242-5.772,6.1-6.857,10.721-11.772t7.592-7.887q5.361-4.913,10.795-9.2t10.943-7.943a55.327,55.327,0,0,1,8.783-4.858,16.67,16.67,0,0,1,5.955-1.543,12.683,12.683,0,0,1,2.979,2.515,9.654,9.654,0,0,0,2.084-.229q3.87,0,5.658,2.4t1.785,7.087a10.869,10.869,0,0,1-.445,2.686q-.448,1.658-1.191,4.058a4.386,4.386,0,0,0-1.488,2.058,24.108,24.108,0,0,0-.746,2.515,17.609,17.609,0,0,1-.445,2.743,11.237,11.237,0,0,1-.744,2.058q-1.937,2.742-4.17,6.687t-4.764,9.2q-1.491,1.944-3.723,5.144t-5.359,7.086q-1.491,2.172-3.8,5.43t-5.881,7.486a13.978,13.978,0,0,1-3.053,3.486q-2.159,1.885-5.135,4.4a34.711,34.711,0,0,1-4.988,6.287q-4.1,4.458-11.391,11.544-3.571,3.543-9.23,8.8t-13.1,12.459a145.1,145.1,0,0,0-4.242,15.259,57.038,57.038,0,0,0-1.416,11.6,8.6,8.6,0,0,0,.373,2.914,1.393,1.393,0,0,0,1.414.973,15.3,15.3,0,0,1,2.16-1.83,32.82,32.82,0,0,0,2.9-2.4q2.827-1.939,6.625-7.2t8.711-13.6a80.454,80.454,0,0,1,7.74-11.6q3.425-4.056,5.658-4.857l5.211-1.715q1.485-.456,2.68-.8a7.335,7.335,0,0,1,1.936-.343,4.776,4.776,0,0,1,3.574,1.829,13.98,13.98,0,0,1,2.68,5.028q1.934,5.83,3.127,8.973t1.34,3.715a11.9,11.9,0,0,0,11.314,6.63q4.614-.571,10.869-1.6,1.189,2.288,2.754,4.915t3.2,5.6q-3.574,1.831-7.221,3.545t-7.221,3.428a25.3,25.3,0,0,1-6.85,1.543,92.147,92.147,0,0,1-10.422.516q-9.082,0-14.068-6.572t-6.031-6.459h-.893q-2.385,2.287-4.988,4.685t-5.137,5.032a49.442,49.442,0,0,1-4.615,6.057q-2.979,3.431-7.146,7.545a57.483,57.483,0,0,1-8.635,6.857,12.845,12.845,0,0,1-6.4,2.285,31.825,31.825,0,0,1-8.857-.971q-3.205-.973-3.8-2.914-1.787-6.4-2.754-11.145a41.294,41.294,0,0,1-.969-8.059,10.033,10.033,0,0,1,.148-1.828c.1-.533.2-1.029.3-1.486q.445-1.485,1.041-3.2a1.02,1.02,0,0,0-.371-.857,2.139,2.139,0,0,0-1.266-.286,11.378,11.378,0,0,1-1.191,1.029,14,14,0,0,1-2.084,1.257,37.528,37.528,0,0,0-2.084-4.114Q1281.016,268.3,1278.633,264.524Zm96.773-105.613q-1.641,0-6.551,4.515a167.581,167.581,0,0,0-12.506,13.316q-4.321,4.916-8.486,9.772t-8.189,9.544a10.234,10.234,0,0,0-2.605,2.743,5.492,5.492,0,0,0-.818,2.857q-2.979,6.4-5.807,12-2.681,6.06-4.393,9.372t-2.01,3.887l.746.571a29.477,29.477,0,0,0,5.061-4.344q2.977-2.628,7.221-6.8t9.6-9.772a95.721,95.721,0,0,0,11.018-13.315q5.657-8.058,12.209-18.574,3.718-5.714,5.582-9.144t1.861-4.8a2.2,2.2,0,0,0-.371-1.314A1.861,1.861,0,0,0,1375.406,158.911Z" transform="translate(-89 -107.282)"/>
    </g>
  </g>
  <line id="_Path_" data-name="&lt;Path&gt;" class="cls-2" x1="0.25" y1="212.5" x2="1330.25" y2="212.5"/>
  <polygon id="_Path_2" data-name="&lt;Path&gt;" class="cls-1" points="208 182.117 0 182.117 0 176.5 208 173 208 182.117"/>
  <polygon id="_Path_3" data-name="&lt;Path&gt;" class="cls-1" points="208.25 168.5 0.25 168.5 0.25 162.5 208.25 159 208.25 168.5"/>
  <polygon id="_Path_4" data-name="&lt;Path&gt;" class="cls-1" points="208.25 154.5 0.25 154.5 0.25 148.5 208.25 145 208.25 154.5"/>
  <polygon id="_Path_5" data-name="&lt;Path&gt;" class="cls-1" points="208.25 140.5 0.25 140.5 0.25 134.5 208.25 131 208.25 140.5"/>
  <polygon id="_Path_6" data-name="&lt;Path&gt;" class="cls-1" points="208.25 124.5 0.25 124.5 0.25 118.5 208.25 115 208.25 124.5"/>
  <polygon id="_Path_7" data-name="&lt;Path&gt;" class="cls-1" points="208.25 110.5 0.25 110.5 0.25 104.5 208.25 101 208.25 110.5"/>
  <polygon id="_Path_8" data-name="&lt;Path&gt;" class="cls-1" points="208.25 94.5 0.25 94.5 0.25 88.5 208.25 85 208.25 94.5"/>
  <polygon id="_Path_9" data-name="&lt;Path&gt;" class="cls-1" points="208.25 80.5 0.25 80.5 0.25 74.5 208.25 71 208.25 80.5"/>
  <polygon id="_Path_10" data-name="&lt;Path&gt;" class="cls-1" points="208.25 66.5 0.25 66.5 0.25 60.5 208.25 57 208.25 66.5"/>
  <polygon id="_Path_11" data-name="&lt;Path&gt;" class="cls-1" points="208.25 52.5 0.25 52.5 0.25 46.5 208.25 43 208.25 52.5"/>
  <polygon id="_Path_12" data-name="&lt;Path&gt;" class="cls-1" points="208.25 36.5 0.25 36.5 0.25 30.5 208.25 27 208.25 36.5"/>
  <g id="_Group_2" data-name="&lt;Group&gt;">
    <g>
      <path id="_Compound_Path_5" data-name="&lt;Compound Path&gt;" class="cls-1" d="M348.657,293.46l-52.487,5.066V179.469H260.4l11.38-47.209h106.6v47.209H348.657Z" transform="translate(-89 -107.282)"/>
      <path id="_Compound_Path_6" data-name="&lt;Compound Path&gt;" class="cls-1" d="M449.685,175.093l48.308-4.146V293.69l-44.359,4.836V281.485q-12.312,17.045-33.211,17.041-17.418,0-25.9-10.709t-8.477-33.046V175.093l47.843-4.146V245.1q0,10.137,8.012,10.133,7.778,0,7.78-10.133Z" transform="translate(-89 -107.282)"/>
      <path id="_Compound_Path_7" data-name="&lt;Compound Path&gt;" class="cls-1" d="M566.735,293.69l-47.843,5.066V174.862l43.662-3.685v19.8q3.957-10.589,12.661-15.774t23.1-5.182a61.354,61.354,0,0,1,6.735.23l-10.684,44.906h-1.857q-13.472,0-19.625,5.411t-6.154,17.617Z" transform="translate(-89 -107.282)"/>
      <path id="_Compound_Path_8" data-name="&lt;Compound Path&gt;" class="cls-1" d="M609,225.986V128.575l47.842-4.605v59.874Q667.993,172.79,687.5,172.79a57.966,57.966,0,0,1,24.153,4.836,51.242,51.242,0,0,1,18,13.356A59.154,59.154,0,0,1,740.8,210.9a76.489,76.489,0,0,1,3.832,24.525,66.475,66.475,0,0,1-5.226,27.059,56.091,56.091,0,0,1-14.631,20.034,65.942,65.942,0,0,1-22.18,12.551,84.788,84.788,0,0,1-27.638,4.377q-31.586,0-48.771-19T609,225.986Zm47.842,8.521q0,8.522,5.342,13.932a18.417,18.417,0,0,0,13.7,5.412q8.588,0,14.051-5.412a18.775,18.775,0,0,0,5.458-13.932q0-8.75-5.458-14.163t-14.051-5.411a18.432,18.432,0,0,0-13.7,5.411Q656.84,225.758,656.844,234.507Z" transform="translate(-89 -107.282)"/>
      <path id="_Compound_Path_9" data-name="&lt;Compound Path&gt;" class="cls-1" d="M752.527,234.967a65.964,65.964,0,0,1,5.109-26.367A59.253,59.253,0,0,1,771.8,188.334a62.288,62.288,0,0,1,21.482-12.9,83.745,83.745,0,0,1,54.113,0,63.591,63.591,0,0,1,21.6,12.9A58.576,58.576,0,0,1,883.281,208.6a71.187,71.187,0,0,1,0,52.966,59.25,59.25,0,0,1-14.167,20.266,63.453,63.453,0,0,1-21.6,13.01,78.232,78.232,0,0,1-27.173,4.607,77.26,77.26,0,0,1-27.057-4.607,63.673,63.673,0,0,1-21.482-13.01,59.2,59.2,0,0,1-14.167-20.266A66.555,66.555,0,0,1,752.527,234.967Zm67.815-19.113a18.636,18.636,0,0,0-13.7,5.3,19.379,19.379,0,0,0-.116,26.6q5.225,5.181,13.818,5.182t13.818-5.182a17.843,17.843,0,0,0,5.226-13.241q0-8.291-5.341-13.472T820.343,215.853Z" transform="translate(-89 -107.282)"/>
    </g>
  </g>
  <g id="_Group_3" data-name="&lt;Group&gt;">
    <path class="cls-1" d="M142.966,425.639h-25.3l-3.515,10.612H91.4L118.5,371.966h24.308l27.1,64.285H146.574Zm-4.623-13.9-7.96-23.109-7.877,23.109Z" transform="translate(-89 -107.282)"/>
    <path class="cls-1" d="M220.481,371.966h22.236v38.3a29.1,29.1,0,0,1-1.993,10.758,23.05,23.05,0,0,1-6.248,8.853,25.335,25.335,0,0,1-8.929,5.324,49.976,49.976,0,0,1-15.594,2.147,110.1,110.1,0,0,1-11.487-.657,32.9,32.9,0,0,1-10.4-2.608,25.713,25.713,0,0,1-7.649-5.543,19.891,19.891,0,0,1-4.747-7.405,34.617,34.617,0,0,1-2.066-10.868v-38.3h22.236v39.212a10.509,10.509,0,0,0,3.271,8.216q3.271,2.958,9.076,2.957,5.755,0,9.027-2.914t3.271-8.259Z" transform="translate(-89 -107.282)"/>
    <path class="cls-1" d="M252.408,371.966h67.74V387.84H297.421v48.411H275.136V387.84H252.408Z" transform="translate(-89 -107.282)"/>
    <path class="cls-1" d="M323.985,404.152q0-15.743,9.838-24.513t27.4-8.771q18.005,0,27.745,8.617t9.741,24.14q0,11.271-4.255,18.483a28.8,28.8,0,0,1-12.3,11.226q-8.043,4.012-20.046,4.013-12.2,0-20.194-3.465a29.245,29.245,0,0,1-12.963-10.963Q323.985,415.423,323.985,404.152Zm22.285.088q0,9.734,4.059,13.988t11.044,4.253q7.182,0,11.118-4.165t3.936-14.953q0-9.078-4.107-13.266t-11.143-4.187a14.311,14.311,0,0,0-10.823,4.254Q346.269,394.418,346.27,404.24Z" transform="translate(-89 -107.282)"/>
    <path class="cls-1" d="M444.215,371.966h37.043q12.1,0,18.128,5.131t6.026,14.6q0,9.735-6.567,15.217T478.8,412.4H466.6v23.854H444.215ZM466.6,399.372h5.46q6.444,0,9.052-2a6.161,6.161,0,0,0,2.607-5.108,6.742,6.742,0,0,0-2.263-5.13q-2.263-2.1-8.511-2.105H466.6Z" transform="translate(-89 -107.282)"/>
    <path class="cls-1" d="M517.071,371.966h22.285v48.455h34.78v15.83H517.071Z" transform="translate(-89 -107.282)"/>
    <path class="cls-1" d="M628.608,425.639h-25.3l-3.515,10.612H577.039l27.106-64.285h24.308l27.1,64.285H632.216Zm-4.623-13.9-7.96-23.109-7.877,23.109Z" transform="translate(-89 -107.282)"/>
    <path class="cls-1" d="M660.816,371.966h63.066v12.849L683.4,422.438h41.959v13.813H656.929V422.92l40.06-37.229H660.816Z" transform="translate(-89 -107.282)"/>
    <path class="cls-1" d="M779.731,425.639h-25.3l-3.515,10.612H728.162l27.106-64.285h24.308l27.1,64.285H783.339Zm-4.623-13.9-7.96-23.109-7.877,23.109Z" transform="translate(-89 -107.282)"/>
  </g>
  <polygon id="_Path_13" data-name="&lt;Path&gt;" class="cls-3" points="1446.042 193.137 1439.583 204.5 1376.25 204.5 1349.583 138.667 1385.583 106.5 1356.25 106.5 1356.25 90.5 1363.583 88.5 1398.25 88.5 1407.583 95 1440.917 72.083 1606.917 66.625 1651.25 121.896 1656.25 135 1656.25 166.5 1641.583 204.5 1586.25 204.5 1580.25 192.054 1446.042 193.137"/>
  <rect id="_Path_14" data-name="&lt;Path&gt;" class="cls-4" x="1408" y="140.117" width="36" height="6"/>
  <polygon id="_Path_15" data-name="&lt;Path&gt;" class="cls-4" points="1554 146.117 1590 146.117 1590 140.5 1554 139.5 1554 146.117"/>
  <rect id="_Path_16" data-name="&lt;Path&gt;" class="cls-4" x="1474" y="172.117" width="68" height="12"/>
  <polygon id="_Path_17" data-name="&lt;Path&gt;" class="cls-4" points="1421 95.309 1450.75 76.117 1598.25 76.117 1609.75 96.117 1578.25 96.117 1566.75 80.117 1538.25 80.117 1523.25 98.117 1498.25 98.117 1484.75 80.309 1457.25 80.654 1441.25 97.731 1421 95.309"/>
  <ellipse id="_Path_18" data-name="&lt;Path&gt;" class="cls-5" cx="1450" cy="54.339" rx="20.25" ry="17.161"/>
  <ellipse id="_Path_19" data-name="&lt;Path&gt;" class="cls-6" cx="1364" cy="128.339" rx="20.25" ry="17.161"/>
  <ellipse id="_Path_20" data-name="&lt;Path&gt;" class="cls-6" cx="1387" cy="142.407" rx="13.25" ry="11.229"/>
  <ellipse id="_Path_21" data-name="&lt;Path&gt;" class="cls-6" cx="1629" cy="164.407" rx="13.25" ry="11.229"/>
  <ellipse id="_Path_22" data-name="&lt;Path&gt;" class="cls-6" cx="1382" cy="184.339" rx="20.25" ry="17.161"/>
  <ellipse id="_Path_23" data-name="&lt;Path&gt;" class="cls-6" cx="1494.415" cy="13.021" rx="8.665" ry="7.343"/>
  <ellipse id="_Path_24" data-name="&lt;Path&gt;" class="cls-6" cx="1468.415" cy="27.021" rx="8.665" ry="7.343"/>
  <ellipse id="_Path_25" data-name="&lt;Path&gt;" class="cls-6" cx="1530.415" cy="65.021" rx="14.585" ry="12.36"/>
  <ellipse id="_Path_26" data-name="&lt;Path&gt;" class="cls-6" cx="1554.415" cy="53.021" rx="14.585" ry="12.36"/>
  <ellipse id="_Path_27" data-name="&lt;Path&gt;" class="cls-6" cx="1584.79" cy="72.398" rx="12.96" ry="10.983"/>
  <path id="_Compound_Path_10" data-name="&lt;Compound Path&gt;" class="cls-6" d="M1779.25,191.282c0,20.711-19.811,37.5-44.25,37.5s-44.25-16.789-44.25-37.5,19.811-37.5,44.25-37.5S1779.25,170.571,1779.25,191.282Z" transform="translate(-89 -107.282)"/>
  <path id="_Compound_Path_11" data-name="&lt;Compound Path&gt;" class="cls-5" d="M1529.25,147.282c0,20.711-19.811,37.5-44.25,37.5s-44.25-16.789-44.25-37.5,19.811-37.5,44.25-37.5S1529.25,126.571,1529.25,147.282Z" transform="translate(-89 -107.282)"/>
  <ellipse id="_Path_28" data-name="&lt;Path&gt;" class="cls-6" cx="1596.79" cy="52.398" rx="12.96" ry="10.983"/>
  <ellipse id="_Path_29" data-name="&lt;Path&gt;" class="cls-6" cx="1608.79" cy="72.398" rx="12.96" ry="10.983"/>
  <ellipse id="_Path_30" data-name="&lt;Path&gt;" class="cls-6" cx="1675.54" cy="124.678" rx="19.71" ry="16.703"/>
  <ellipse id="_Path_31" data-name="&lt;Path&gt;" class="cls-6" cx="1639.54" cy="180.678" rx="19.71" ry="16.703"/>
  <ellipse id="_Path_32" data-name="&lt;Path&gt;" class="cls-6" cx="1642.074" cy="117.615" rx="16.244" ry="13.766"/>
  <g id="_Group_4" data-name="&lt;Group&gt;">
    <path class="cls-7" d="M1848.228,307.11a33.264,33.264,0,1,1-4.461-16.6A32.613,32.613,0,0,1,1848.228,307.11Zm-6.441,0a26.819,26.819,0,1,0-7.854,18.952A25.826,25.826,0,0,0,1841.786,307.11Zm-41.864-17.756h15.884q6.746,0,9.771,2.72a9.323,9.323,0,0,1,3.024,7.29,9.032,9.032,0,0,1-2.307,6.18q-2.307,2.61-7.268,3.786a9.679,9.679,0,0,1,3,1.653,16.838,16.838,0,0,1,2.828,3.612q.088.174,5.745,10.271h-10.444q-5.092-10.14-6.833-12.12a4.813,4.813,0,0,0-3.481-1.98,6.328,6.328,0,0,0-1.088.131v13.97h-8.834Zm8.834,15.058h3.83q3.828,0,5.4-1.24a3.9,3.9,0,0,0,1.567-3.2,3.961,3.961,0,0,0-1.5-3.2q-1.5-1.241-5.113-1.24h-4.178Z" transform="translate(-89 -107.282)"/>
  </g>
</svg>
