<!-- Generator: Adobe Illustrator 18.1.1, SVG Export Plug-In  -->
<svg version="1.1"
	 xmlns="http://www.w3.org/2000/svg" xmlns:xlink="http://www.w3.org/1999/xlink" xmlns:a="http://ns.adobe.com/AdobeSVGViewerExtensions/3.0/"
	 x="0px" y="0px" width="1761.534px" height="356.507px" viewBox="0 0 1761.534 356.507"
	 overflow="scroll" enable-background="new 0 0 1761.534 356.507" xml:space="preserve">
<defs>
</defs>
<g id="XMLID_297_">
	<g id="XMLID_299_">
		<path id="XMLID_307_" fill="#204996" d="M835.586,22.482c2.182,0,4.043,0.248,5.583,0.743c1.538,0.496,2.804,1.125,3.797,1.886
			c0.894,0.686,1.761,1.582,2.605,2.687c0.842,1.105,1.91,2.457,3.201,4.058c1.586,2.211,2.729,3.905,3.424,5.086
			c0.693,1.183,1.042,1.963,1.042,2.343c-0.695,4.421-1.34,8.649-1.936,12.688c-0.397,4.269-1.042,8.649-1.936,13.145
			c-0.397,1.068-0.744,2.249-1.042,3.544c0.396,1.905,0.719,3.925,0.968,6.058c0.247,2.134,0.421,4.269,0.521,6.4
			c0.197,1.678,0.298,3.563,0.298,5.658c0,2.097-0.101,4.478-0.298,7.144c-0.101,3.354-0.2,6.078-0.298,8.173
			c-0.101,2.097-0.149,3.525-0.149,4.286c0,0.534,0.049,1.143,0.149,1.829c0.098,0.686,0.298,1.448,0.596,2.285
			c0.197,1.068,0.544,2.4,1.042,4.001v7.201c0.098,2.896,1.31,9.601,3.634,20.116s3.843,16.156,4.555,16.917
			c0.693-0.304,1.289-0.532,1.784-0.687l11.602-16.002c0.594-1.295,1.361-2.952,2.303-4.972c0.941-2.019,2.059-4.361,3.348-7.029
			c4.461-6.704,8.703-15.448,12.715-26.232c4.016-10.781,7.762-23.563,11.23-38.348c1.188-4.267,2.75-7.657,4.684-10.172
			s4.09-4.038,6.469-4.572l13.238-3.658c2.281,0.687,3.918,1.62,4.91,2.801c0.992,1.183,1.492,2.726,1.492,4.629
			c0,2.363-0.547,6.192-1.641,11.487c-1.094,5.297-2.777,11.944-5.051,19.945c-0.098,1.754-0.359,3.926-0.793,6.516
			c-0.434,2.591-0.941,5.64-1.523,9.144c-0.797,2.743-1.414,4.915-1.863,6.516c-0.445,1.6-0.668,2.591-0.668,2.972
			c0,1.982,0.047,4.248,0.148,6.801c0.098,2.554,0.195,5.429,0.297,8.629c0.199,3.887,0.297,7.126,0.297,9.716
			c0,2.592,0,4.42,0,5.486c0.098,5.106,0.32,8.973,0.672,11.602c0.348,2.629,0.816,3.943,1.414,3.943
			c0.992,0,2.551-1.638,4.684-4.915c2.129-3.275,4.734-8.229,7.805-14.858c2.48-5.029,4.734-9.791,6.766-14.288
			c2.035-4.495,3.84-8.724,5.43-12.688c0.988-0.837,1.781-2.018,2.379-3.543c0.594-1.523,0.988-3.467,1.188-5.829
			c1.586-3.275,3.121-6.725,4.609-10.345c1.488-3.618,3.074-7.372,4.758-11.258c0.992-2.286,2.059-5.144,3.199-8.573
			c1.141-3.429,2.5-7.504,4.086-12.229l-1.93-4.801c0.297-0.914,0.742-2.058,1.336-3.429c0.594-1.372,1.141-3.01,1.637-4.915
			c2.676-3.275,5.082-5.753,7.211-7.43c2.133-1.675,3.844-2.515,5.133-2.515c0.988,0,1.684,0.4,2.082,1.2
			c0.395,0.8,0.598,2.077,0.598,3.829c0,4.648-0.129,8.249-0.375,10.802c-0.246,2.554-0.57,4.211-0.965,4.972
			c-0.695,1.068-1.293,2.077-1.789,3.029c-0.496,0.953-0.891,1.733-1.191,2.343l1.938,5.601c-0.598,1.068-1.293,2.991-2.086,5.772
			c-0.793,2.782-1.688,6.42-2.68,10.915c-0.992,4.269-1.887,7.658-2.68,10.173c-0.797,2.515-1.539,4.191-2.234,5.029
			c-0.297,1.448-0.941,3.2-1.934,5.258s-2.184,4.497-3.574,7.315c-0.594,0.991-1.242,2.534-1.934,4.629
			c-0.695,2.097-1.543,4.592-2.531,7.487c-0.695,1.753-1.59,3.828-2.68,6.229c-1.094,2.4-2.336,5.315-3.723,8.744
			c-0.992,0.991-1.961,2.325-2.902,4.001c-0.945,1.677-1.813,3.771-2.605,6.286c-0.5,1.22-1.414,2.991-2.754,5.315
			c-1.344,2.325-3.004,5.314-4.988,8.972c-2.086,3.812-3.871,6.745-5.359,8.802c-1.492,2.059-2.531,3.201-3.129,3.43l-3.574,1.6
			c-0.793,0.764-1.785,1.277-2.977,1.543c-1.191,0.27-2.73,0.363-4.613,0.287c-1.789,0.838-3.352,1.484-4.691,1.943
			c-1.34,0.457-2.406,0.686-3.199,0.686c-3.773,0-6.801-1.145-9.082-3.43c-2.285-2.285-3.922-5.789-4.914-10.517
			c-0.297-3.275-0.621-6.572-0.969-9.887s-0.723-6.687-1.117-10.115c-0.199-1.676-0.57-3.904-1.117-6.687
			c-0.547-2.781-1.414-6.115-2.605-10.002c-2.082,3.049-4.242,6.192-6.477,9.43c-2.23,3.24-4.539,6.649-6.922,10.23
			c0.098,0.686-0.594,2.362-2.082,5.029c-1.492,2.668-3.574,6.363-6.256,11.087c-2.78,4.954-5.758,9.944-8.934,14.974
			c-2.284,2.973-4.74,5.201-7.369,6.688c-2.631,1.486-5.583,2.229-8.858,2.229c-1.592,0-3.134-0.951-4.625-2.857
			c-1.493-1.904-2.984-4.801-4.476-8.688c-0.898-2.361-1.769-4.742-2.612-7.143c-0.847-2.4-1.717-4.859-2.61-7.374
			c0.495-1.066,0.845-1.943,1.044-2.629c-0.697-1.066-1.419-2.515-2.163-4.344c-0.747-1.828-1.567-4.038-2.464-6.629
			c-0.298-1.601-0.695-3.658-1.193-6.173c-0.497-2.514-1.044-5.486-1.64-8.915c-0.1-1.066-0.2-2.152-0.3-3.258
			c-0.101-1.104-0.2-2.189-0.298-3.257c-0.101-0.838-0.375-1.752-0.821-2.743c-0.447-0.99-1.119-2.133-2.015-3.43
			c-0.2-0.457-0.372-1.58-0.521-3.371c-0.148-1.79-0.323-4.287-0.523-7.487c-0.1-2.59-0.397-4.743-0.896-6.458
			c-0.498-1.714-1.242-2.838-2.235-3.372l-4.029-2.285c-0.598-1.066-1.07-2.724-1.419-4.973c-0.349-2.246-0.521-5.01-0.521-8.286
			c0-8.61,0.67-17.603,2.011-26.976c1.34-9.372,3.35-19.239,6.029-29.604c0.693-2.666,1.936-4.687,3.723-6.058
			C830.673,23.168,832.906,22.482,835.586,22.482z"/>
		<path id="XMLID_305_" fill="#204996" d="M986.703,152.213l13.549-6.857c0.496-0.381,1.09-0.896,1.787-1.543
			c0.693-0.646,1.488-1.581,2.381-2.801c0.693-0.989,1.613-1.829,2.754-2.515s2.457-1.295,3.947-1.829
			c0.793-0.761,1.934-1.714,3.424-2.857c1.488-1.143,3.373-2.475,5.656-4c1.092-0.457,2.48-1.124,4.17-2.001
			c1.686-0.875,3.521-2.037,5.508-3.485c9.031-6.553,16.947-11.468,23.748-14.745c6.797-3.275,12.529-4.915,17.195-4.915
			c2.58,0,4.49,0.42,5.732,1.258c1.24,0.839,1.861,2.02,1.861,3.543c0,1.601-0.373,3.011-1.117,4.229
			c-0.744,1.22-1.912,2.248-3.498,3.086c-2.482,1.371-5.162,2.896-8.041,4.572c-1.588,1.6-3.523,3.297-5.807,5.086
			c-2.283,1.791-4.963,3.563-8.039,5.314c-0.994,0.991-1.838,1.868-2.531,2.629c-0.498,0.383-1.439,1.068-2.828,2.058
			c-1.391,0.991-3.227,2.135-5.51,3.43c-0.992,1.677-3.15,3.849-6.477,6.515c-3.326,2.668-7.766,5.868-13.324,9.602
			c-0.695,0.533-1.936,1.754-3.723,3.657c-1.785,1.905-4.119,4.42-6.996,7.544l1.041,1.029c2.182-0.533,4.467-1.447,6.85-2.744
			c2.381-1.295,5.01-3.009,7.891-5.144c3.373-2.36,6.127-4.286,8.262-5.771c2.135-1.486,3.648-2.458,4.541-2.915
			c0.693-0.304,1.391-0.609,2.086-0.914c0.693-0.304,1.488-0.687,2.381-1.144c4.564-4.189,8.834-7.295,12.805-9.315
			c3.969-2.018,7.643-3.028,11.018-3.028c2.084,0,3.67,0.628,4.764,1.886c1.092,1.257,1.736,3.143,1.936,5.657
			c-0.199,3.812-0.297,7.469-0.297,10.974c-0.102,2.439,0.768,4.629,2.605,6.572c1.834,1.942,4.242,2.914,7.221,2.914
			c0.893,0,1.76-0.189,2.605-0.571c0.842-0.381,1.711-0.875,2.605-1.486c0.693-0.686,1.363-1.332,2.01-1.942
			c0.645-0.609,1.314-1.219,2.01-1.829c0.395-0.152,0.967-0.418,1.711-0.8c0.746-0.381,1.465-0.838,2.16-1.372
			c1.389,2.286,2.555,4.286,3.498,6.001s1.662,3.22,2.158,4.515c-2.283,1.602-4.539,3.258-6.773,4.973
			c-2.232,1.715-4.592,3.334-7.072,4.857c-2.977,1.754-5.857,3.068-8.635,3.943c-2.779,0.877-5.561,1.314-8.338,1.314
			c-6.453,0-11.414-1.408-14.889-4.229c-3.475-2.818-5.508-7.086-6.104-12.803c0-0.686-0.125-1.389-0.373-2.114
			c-0.248-0.724-0.77-1.466-1.563-2.229c-0.498,0.382-1.043,0.782-1.637,1.2c-0.596,0.419-1.291,0.972-2.086,1.657
			c-1.291,0.763-2.902,1.714-4.838,2.857c-1.936,1.143-4.195,2.515-6.773,4.116c-3.477,2.742-6.402,4.99-8.785,6.742
			c-2.383,1.754-4.07,3.012-5.063,3.773c-1.986,1.297-4.293,2.592-6.922,3.885c-2.631,1.297-5.584,2.629-8.859,4.002
			c-2.084,0.838-3.871,1.506-5.359,2s-2.582,0.742-3.275,0.742c-4.764,0-8.287-0.896-10.57-2.686s-3.426-4.553-3.426-8.287
			c0-2.057,0.572-4.018,1.713-5.887c1.143-1.865,2.854-3.676,5.137-5.428c0.197-0.99,0.297-1.792,0.297-2.402
			c0-0.38-0.125-0.78-0.371-1.2c-0.25-0.418-0.57-0.895-0.969-1.429c-0.596-1.066-1.266-2.267-2.01-3.601
			c-0.744-1.332-1.563-2.761-2.457-4.286c0.398-0.304,0.969-0.895,1.713-1.771C984.842,154.596,985.713,153.51,986.703,152.213z"/>
		<path id="XMLID_303_" fill="#204996" d="M1096.432,157.242l0.893-0.8c0.398-1.066,1.266-2.209,2.605-3.429
			c1.34-1.219,3.25-2.438,5.732-3.658c3.275-1.6,5.83-2.895,7.668-3.886c1.834-0.989,2.951-1.715,3.35-2.172
			c0.893-0.838,1.488-1.486,1.787-1.943c1.09-0.609,2.43-1.446,4.02-2.515c1.586-1.066,3.373-2.361,5.359-3.886
			c0.693-0.381,1.438-0.989,2.232-1.829c0.795-0.838,1.588-1.789,2.383-2.857c1.289-0.686,2.754-1.561,4.393-2.629
			c1.637-1.066,3.547-2.438,5.732-4.115c2.479-2.057,5.285-4.323,8.41-6.801c3.127-2.475,6.627-5.047,10.498-7.715
			c1.287-0.457,2.504-0.818,3.646-1.086c1.141-0.267,2.256-0.4,3.35-0.4c4.467,0,7.816,0.82,10.051,2.458
			c2.232,1.64,3.35,3.982,3.35,7.029c0,0.763-0.176,2.02-0.521,3.771c-0.35,1.754-0.721,3.963-1.117,6.63
			c-1.391,7.697-2.381,12.384-2.977,14.059c-0.596,1.677-2.68,6.935-6.254,15.773c-0.795,1.448-1.613,3.24-2.457,5.372
			c-0.844,2.135-1.859,4.726-3.051,7.774c0.197,0.305,0.693,0.609,1.488,0.914c0.693,0,1.936-0.516,3.723-1.543
			c1.785-1.029,4.168-2.573,7.146-4.631c3.473-2.438,6.201-4.304,8.188-5.601c1.984-1.295,3.225-2.058,3.723-2.286
			c1.191,2.058,2.281,3.943,3.275,5.658c0.99,1.714,1.836,3.334,2.531,4.857c-1.291,0.61-2.457,1.299-3.5,2.059
			c-1.041,0.762-2.01,1.6-2.902,2.514c-2.084,1.068-4.492,2.287-7.221,3.658c-2.73,1.371-5.732,2.857-9.008,4.457
			c-1.488,1.145-3.498,2.535-6.029,4.172c-2.531,1.641-5.385,3.486-8.561,5.545l-2.83,0.457c-1.391,1.447-2.705,2.553-3.945,3.314
			c-1.242,0.762-2.357,1.295-3.35,1.6c-1.588,0.457-3.178,0.895-4.764,1.314c-1.59,0.418-3.275,0.857-5.063,1.314
			c-1.094-0.229-1.887-0.725-2.381-1.484c-0.498-0.764-0.697-1.754-0.596-2.973c-1.49-2.057-2.682-4.418-3.574-7.086
			s-1.34-5.639-1.34-8.916c0-0.609,0.049-1.258,0.148-1.943c0.098-0.686,0.199-1.295,0.299-1.828
			c-0.695-1.98-1.043-3.162-1.043-3.543c0-2.288,1.141-4.174,3.424-5.66c2.283-1.485,4.863-2.229,7.742-2.229
			c1.49,0,2.555,0.591,3.201,1.771c0.645,1.183,1.314,1.771,2.01,1.771c0.693,0,1.414-1.046,2.16-3.143
			c0.744-2.095,1.463-5.161,2.158-9.201c0.693-3.504,1.141-6.553,1.34-9.145c0.197-2.589,0.297-4.571,0.297-5.943
			c0-0.989-0.273-1.732-0.818-2.229c-0.547-0.495-1.465-0.743-2.754-0.743c-1.291,0-5.461,2.286-12.506,6.858
			c-7.049,4.571-16.875,11.392-29.479,20.459c-0.398,0.534-0.969,1.183-1.713,1.943c-0.744,0.763-1.615,1.715-2.605,2.857
			c-0.398-1.143-1.092-2.552-2.084-4.229C1099.311,161.854,1098.02,159.757,1096.432,157.242z"/>
		<path id="XMLID_300_" fill="#204996" d="M1189.633,157.242c2.184-1.446,3.871-2.59,5.063-3.429
			c1.189-0.838,2.133-1.562,2.828-2.172c1.586-1.143,2.877-2.247,3.871-3.314c0.99-1.066,1.537-2.019,1.637-2.857
			c0.895-2.59,1.936-5.83,3.127-9.716s2.729-8.382,4.615-13.487c0.895-1.523,1.861-3.447,2.904-5.772
			c1.041-2.323,2.158-4.933,3.35-7.829c1.191-3.81,2.68-7.276,4.467-10.401c1.785-3.124,3.77-5.943,5.955-8.458
			c0.693-0.687,1.389-1.543,2.084-2.572c0.693-1.028,1.389-2.229,2.084-3.601c0.693-1.218,1.662-2.646,2.904-4.286
			c1.238-1.638,2.654-3.561,4.242-5.772c4.068-4.571,7.643-8.495,10.721-11.772c3.074-3.275,5.605-5.904,7.592-7.887
			c3.574-3.275,7.17-6.344,10.795-9.201c3.621-2.857,7.27-5.504,10.943-7.943c3.373-2.21,6.301-3.829,8.783-4.858
			c2.48-1.028,4.467-1.543,5.955-1.543c1.389,0.914,2.383,1.754,2.979,2.515c0.693,0,1.389-0.075,2.084-0.229
			c2.58,0,4.467,0.8,5.658,2.4c1.189,1.6,1.785,3.963,1.785,7.087c0,0.686-0.148,1.582-0.445,2.686
			c-0.299,1.105-0.697,2.458-1.191,4.058c-0.695,0.534-1.191,1.22-1.488,2.058c-0.299,0.839-0.547,1.677-0.746,2.515
			c-0.1,1.067-0.248,1.982-0.445,2.743c-0.201,0.763-0.447,1.448-0.744,2.058c-1.291,1.828-2.682,4.058-4.17,6.687
			s-3.078,5.697-4.764,9.201c-0.994,1.296-2.234,3.011-3.723,5.144c-1.488,2.134-3.275,4.497-5.359,7.086
			c-0.994,1.448-2.26,3.258-3.797,5.43c-1.539,2.172-3.498,4.668-5.881,7.486c-0.596,1.068-1.615,2.229-3.053,3.486
			c-1.439,1.257-3.15,2.726-5.135,4.4c-0.596,1.22-2.26,3.314-4.988,6.287c-2.73,2.972-6.527,6.82-11.391,11.544
			c-2.381,2.362-5.459,5.297-9.23,8.801c-3.773,3.506-8.139,7.658-13.102,12.459c-1.887,5.715-3.301,10.802-4.242,15.259
			c-0.945,4.458-1.416,8.327-1.416,11.603c0,1.297,0.125,2.268,0.373,2.914c0.246,0.648,0.719,0.973,1.414,0.973
			c0.496-0.533,1.215-1.143,2.16-1.83c0.941-0.686,1.908-1.484,2.902-2.4c1.885-1.293,4.094-3.695,6.625-7.201
			c2.531-3.504,5.434-8.038,8.711-13.602c2.877-5.029,5.457-8.896,7.74-11.602c2.283-2.704,4.17-4.323,5.658-4.857l5.211-1.715
			c0.99-0.304,1.885-0.571,2.68-0.8c0.793-0.229,1.438-0.343,1.936-0.343c1.289,0,2.48,0.61,3.574,1.829
			c1.09,1.22,1.984,2.896,2.68,5.028c1.289,3.887,2.33,6.878,3.127,8.973c0.793,2.097,1.238,3.335,1.34,3.715
			c1.287,2.286,2.852,3.963,4.689,5.029c1.836,1.068,4.043,1.601,6.625,1.601c3.076-0.381,6.699-0.915,10.869-1.601
			c0.793,1.525,1.711,3.163,2.754,4.915c1.041,1.754,2.107,3.62,3.201,5.601c-2.383,1.221-4.791,2.402-7.221,3.545
			c-2.434,1.143-4.84,2.285-7.221,3.428c-1.59,0.686-3.871,1.201-6.85,1.543c-2.979,0.344-6.453,0.516-10.422,0.516
			c-6.055,0-10.744-2.189-14.068-6.572c-3.328-4.383-5.338-6.534-6.031-6.459h-0.893c-1.59,1.524-3.252,3.086-4.988,4.685
			c-1.736,1.603-3.449,3.28-5.137,5.032c-1.092,1.754-2.631,3.771-4.615,6.057c-1.986,2.287-4.369,4.801-7.146,7.545
			c-3.275,3.049-6.154,5.332-8.635,6.857c-2.482,1.523-4.615,2.285-6.402,2.285c-3.773,0-6.725-0.324-8.857-0.971
			c-2.137-0.648-3.402-1.619-3.797-2.914c-1.191-4.268-2.109-7.982-2.754-11.145c-0.646-3.162-0.969-5.848-0.969-8.059
			c0-0.686,0.049-1.295,0.148-1.828c0.098-0.533,0.199-1.029,0.299-1.486c0.297-0.99,0.645-2.059,1.041-3.201
			c0-0.381-0.125-0.666-0.371-0.857c-0.25-0.189-0.67-0.286-1.266-0.286c-0.299,0.306-0.695,0.648-1.191,1.029
			c-0.498,0.382-1.191,0.8-2.084,1.257c-0.398-0.989-1.092-2.361-2.084-4.114S1191.221,159.757,1189.633,157.242z M1286.406,51.629
			c-1.094,0-3.275,1.506-6.551,4.515c-3.275,3.012-7.443,7.449-12.506,13.316c-2.881,3.277-5.709,6.534-8.486,9.772
			c-2.779,3.24-5.51,6.421-8.189,9.544c-1.189,0.915-2.061,1.829-2.605,2.743c-0.547,0.915-0.818,1.868-0.818,2.857
			c-1.986,4.269-3.922,8.27-5.807,12.002c-1.787,4.04-3.252,7.163-4.393,9.372c-1.141,2.211-1.811,3.506-2.01,3.887l0.746,0.571
			c1.984-1.371,3.67-2.818,5.061-4.344c1.984-1.752,4.393-4.018,7.221-6.801c2.83-2.78,6.031-6.038,9.604-9.772
			c3.574-3.504,7.244-7.943,11.018-13.315c3.771-5.372,7.84-11.563,12.209-18.574c2.479-3.81,4.34-6.857,5.582-9.144
			c1.24-2.286,1.861-3.887,1.861-4.801c0-0.532-0.125-0.972-0.371-1.314C1287.721,51.801,1287.199,51.629,1286.406,51.629z"/>
	</g>
</g>
<line id="XMLID_293_" fill="none" stroke="#ED1E24" stroke-width="9" stroke-miterlimit="10" x1="0.25" y1="212.5" x2="1330.25" y2="212.5"/>
<polygon id="XMLID_290_" fill="#123C8F" points="208.25,182.5 0.25,182.5 0.25,176.5 208.25,173 "/>
<polygon id="XMLID_287_" fill="#123C8F" points="208.25,168.5 0.25,168.5 0.25,162.5 208.25,159 "/>
<polygon id="XMLID_274_" fill="#123C8F" points="208.25,154.5 0.25,154.5 0.25,148.5 208.25,145 "/>
<polygon id="XMLID_271_" fill="#123C8F" points="208.25,140.5 0.25,140.5 0.25,134.5 208.25,131 "/>
<polygon id="XMLID_268_" fill="#123C8F" points="208.25,124.5 0.25,124.5 0.25,118.5 208.25,115 "/>
<polygon id="XMLID_264_" fill="#123C8F" points="208.25,110.5 0.25,110.5 0.25,104.5 208.25,101 "/>
<polygon id="XMLID_261_" fill="#123C8F" points="208.25,94.5 0.25,94.5 0.25,88.5 208.25,85 "/>
<polygon id="XMLID_258_" fill="#123C8F" points="208.25,80.5 0.25,80.5 0.25,74.5 208.25,71 "/>
<polygon id="XMLID_255_" fill="#123C8F" points="208.25,66.5 0.25,66.5 0.25,60.5 208.25,57 "/>
<polygon id="XMLID_252_" fill="#123C8F" points="208.25,52.5 0.25,52.5 0.25,46.5 208.25,43 "/>
<polygon id="XMLID_249_" fill="#123C8F" points="208.25,36.5 0.25,36.5 0.25,30.5 208.25,27 "/>
<g id="XMLID_222_">
	<g id="XMLID_224_">
		<path id="XMLID_235_" fill="#204996" d="M259.657,186.178l-52.487,5.066V72.187h-35.766l11.38-47.209h106.601v47.209h-29.728
			V186.178z"/>
		<path id="XMLID_233_" fill="#204996" d="M360.685,67.811l48.308-4.146v122.743l-44.359,4.836v-17.041
			c-8.208,11.363-19.276,17.041-33.211,17.041c-11.612,0-20.245-3.57-25.896-10.709c-5.653-7.139-8.477-18.152-8.477-33.046V67.811
			l47.843-4.146v74.152c0,6.758,2.671,10.133,8.012,10.133c5.186,0,7.78-3.375,7.78-10.133V67.811z"/>
		<path id="XMLID_231_" fill="#204996" d="M477.735,186.408l-47.843,5.066V67.58l43.662-3.685V83.7
			c2.638-7.06,6.858-12.32,12.661-15.774s13.503-5.182,23.104-5.182c3.404,0,5.65,0.079,6.735,0.23l-10.684,44.906h-1.857
			c-8.981,0-15.524,1.806-19.625,5.411c-4.104,3.609-6.154,9.481-6.154,17.617V186.408z"/>
		<path id="XMLID_228_" fill="#204996" d="M520.002,118.704V21.293l47.842-4.605v59.874c7.433-7.369,17.651-11.054,30.657-11.054
			c8.978,0,17.03,1.612,24.153,4.836c7.12,3.224,13.122,7.679,17.999,13.356c4.877,5.682,8.593,12.32,11.147,19.92
			s3.832,15.774,3.832,24.525c0,10.133-1.741,19.153-5.226,27.059c-3.483,7.909-8.36,14.587-14.631,20.034
			c-6.271,5.451-13.666,9.637-22.18,12.551c-8.517,2.916-17.73,4.377-27.638,4.377c-21.058,0-37.315-6.334-48.771-19
			C525.728,160.501,520.002,142.348,520.002,118.704z M567.844,127.225c0,5.682,1.778,10.327,5.342,13.932
			c3.561,3.609,8.129,5.412,13.703,5.412c5.726,0,10.411-1.803,14.051-5.412c3.636-3.604,5.458-8.25,5.458-13.932
			c0-5.833-1.822-10.554-5.458-14.163c-3.64-3.605-8.325-5.411-14.051-5.411c-5.574,0-10.143,1.806-13.703,5.411
			C569.622,116.671,567.844,121.392,567.844,127.225z"/>
		<path id="XMLID_225_" fill="#204996" d="M663.527,127.685c0-9.672,1.702-18.458,5.109-26.367
			c3.403-7.905,8.128-14.659,14.167-20.266c6.038-5.603,13.198-9.902,21.482-12.896c8.281-2.994,17.303-4.491,27.057-4.491
			c9.755,0,18.772,1.497,27.057,4.491c8.281,2.993,15.48,7.293,21.599,12.896c6.115,5.606,10.876,12.36,14.283,20.266
			c3.404,7.909,5.109,16.695,5.109,26.367c0,9.827-1.705,18.693-5.109,26.599c-3.407,7.908-8.128,14.662-14.167,20.266
			c-6.038,5.605-13.237,9.941-21.599,13.01c-8.36,3.07-17.418,4.607-27.173,4.607c-9.754,0-18.775-1.537-27.057-4.607
			c-8.284-3.068-15.444-7.404-21.482-13.01c-6.039-5.604-10.764-12.357-14.167-20.266
			C665.229,146.378,663.527,137.512,663.527,127.685z M731.343,108.571c-5.574,0-10.143,1.767-13.702,5.297
			c-3.563,3.533-5.342,7.984-5.342,13.356c0,5.376,1.742,9.787,5.226,13.241s8.089,5.182,13.818,5.182
			c5.727,0,10.335-1.728,13.818-5.182c3.484-3.454,5.226-7.865,5.226-13.241c0-5.527-1.781-10.018-5.341-13.472
			C741.481,110.299,736.917,108.571,731.343,108.571z"/>
	</g>
</g>
<g id="XMLID_220_">
	<g>
		<path fill="#204996" d="M53.966,318.356h-25.3l-3.515,10.612H2.396l27.106-64.285h24.308l27.1,64.285H57.574L53.966,318.356z
			 M49.343,304.456l-7.96-23.109l-7.877,23.109H49.343z"/>
		<path fill="#204996" d="M131.481,264.684h22.236v38.3c0,3.798-0.665,7.385-1.993,10.758c-1.328,3.375-3.411,6.326-6.248,8.853
			c-2.837,2.527-5.813,4.302-8.929,5.324c-4.329,1.431-9.527,2.147-15.594,2.147c-3.51,0-7.338-0.22-11.487-0.657
			c-4.149-0.439-7.618-1.308-10.405-2.608c-2.788-1.3-5.337-3.147-7.649-5.543c-2.312-2.395-3.895-4.863-4.747-7.405
			c-1.377-4.09-2.066-7.713-2.066-10.868v-38.3h22.236v39.212c0,3.506,1.09,6.244,3.271,8.216c2.181,1.972,5.206,2.957,9.076,2.957
			c3.837,0,6.846-0.971,9.027-2.914c2.181-1.942,3.271-4.695,3.271-8.259V264.684z"/>
		<path fill="#204996" d="M163.408,264.684h67.74v15.874h-22.728v48.411h-22.285v-48.411h-22.728V264.684z"/>
		<path fill="#204996" d="M234.985,296.87c0-10.495,3.279-18.665,9.838-24.513c6.559-5.847,15.693-8.771,27.401-8.771
			c12.003,0,21.251,2.873,27.745,8.617s9.741,13.791,9.741,24.14c0,7.514-1.419,13.675-4.255,18.483
			c-2.837,4.809-6.937,8.551-12.299,11.226c-5.362,2.675-12.044,4.013-20.046,4.013c-8.134,0-14.865-1.155-20.194-3.465
			c-5.33-2.309-9.65-5.964-12.963-10.963C236.641,310.64,234.985,304.384,234.985,296.87z M257.27,296.958
			c0,6.489,1.353,11.153,4.059,13.988c2.706,2.836,6.387,4.253,11.044,4.253c4.788,0,8.494-1.388,11.118-4.165
			c2.624-2.777,3.936-7.762,3.936-14.953c0-6.052-1.37-10.473-4.107-13.266c-2.739-2.791-6.453-4.188-11.143-4.188
			c-4.494,0-8.101,1.419-10.823,4.254C258.63,285.718,257.27,290.409,257.27,296.958z"/>
		<path fill="#204996" d="M355.215,264.684h37.043c8.068,0,14.11,1.71,18.128,5.131c4.017,3.42,6.026,8.287,6.026,14.602
			c0,6.49-2.189,11.563-6.567,15.217c-4.378,3.654-11.061,5.481-20.047,5.481h-12.2v23.854h-22.383V264.684z M377.599,292.09h5.46
			c4.296,0,7.313-0.664,9.052-1.995c1.738-1.329,2.607-3.032,2.607-5.108c0-2.017-0.754-3.728-2.263-5.13
			c-1.509-1.403-4.346-2.105-8.511-2.105h-6.346V292.09z"/>
		<path fill="#204996" d="M428.071,264.684h22.285v48.455h34.78v15.83h-57.065V264.684z"/>
		<path fill="#204996" d="M539.608,318.356h-25.3l-3.515,10.612h-22.754l27.106-64.285h24.308l27.1,64.285h-23.336L539.608,318.356z
			 M534.985,304.456l-7.96-23.109l-7.877,23.109H534.985z"/>
		<path fill="#204996" d="M571.816,264.684h63.066v12.849l-40.483,37.624h41.959v13.813h-68.429v-13.331l40.06-37.229h-36.173
			V264.684z"/>
		<path fill="#204996" d="M690.731,318.356h-25.3l-3.515,10.612h-22.754l27.106-64.285h24.308l27.1,64.285h-23.336L690.731,318.356z
			 M686.108,304.456l-7.96-23.109l-7.877,23.109H686.108z"/>
	</g>
</g>
<polygon id="XMLID_217_" fill="#EC1217" points="1446.042,193.137 1439.583,204.5 1376.25,204.5 1349.583,138.667 1385.583,106.5 
	1356.25,106.5 1356.25,90.5 1363.583,88.5 1398.25,88.5 1407.583,95 1440.917,72.083 1606.917,66.625 1651.25,121.896 1656.25,135 
	1656.25,166.5 1641.583,204.5 1586.25,204.5 1580.25,192.054 "/>
<rect id="XMLID_216_" x="1408" y="140.117" fill="#FFFFFF" width="36" height="6"/>
<polygon id="XMLID_208_" fill="#FFFFFF" points="1554,146.117 1590,146.117 1590,140.5 1554,139.5 "/>
<rect id="XMLID_207_" x="1474" y="172.117" fill="#FFFFFF" width="68" height="12"/>
<polygon id="XMLID_206_" fill="#FFFFFF" points="1421,95.309 1450.75,76.117 1598.25,76.117 1609.75,96.117 1578.25,96.117 
	1566.75,80.117 1538.25,80.117 1523.25,98.117 1498.25,98.117 1484.75,80.309 1457.25,80.654 1441.25,97.731 "/>
<ellipse id="XMLID_202_" fill="#FFFFFF" stroke="#4869A8" stroke-width="5" stroke-miterlimit="10" cx="1450" cy="54.339" rx="20.25" ry="17.161"/>
<ellipse id="XMLID_198_" fill="#FFFFFF" stroke="#4869A8" stroke-width="4" stroke-miterlimit="10" cx="1364" cy="128.339" rx="20.25" ry="17.161"/>
<ellipse id="XMLID_183_" fill="#FFFFFF" stroke="#4869A8" stroke-width="4" stroke-miterlimit="10" cx="1387" cy="142.407" rx="13.25" ry="11.229"/>
<ellipse id="XMLID_176_" fill="#FFFFFF" stroke="#4869A8" stroke-width="4" stroke-miterlimit="10" cx="1629" cy="164.407" rx="13.25" ry="11.229"/>
<ellipse id="XMLID_161_" fill="#FFFFFF" stroke="#4869A8" stroke-width="4" stroke-miterlimit="10" cx="1382" cy="184.339" rx="20.25" ry="17.161"/>
<ellipse id="XMLID_157_" fill="#FFFFFF" stroke="#4869A8" stroke-width="4" stroke-miterlimit="10" cx="1494.415" cy="13.021" rx="8.665" ry="7.343"/>
<ellipse id="XMLID_153_" fill="#FFFFFF" stroke="#4869A8" stroke-width="4" stroke-miterlimit="10" cx="1468.415" cy="27.021" rx="8.665" ry="7.343"/>
<ellipse id="XMLID_149_" fill="#FFFFFF" stroke="#4869A8" stroke-width="4" stroke-miterlimit="10" cx="1530.415" cy="65.021" rx="14.585" ry="12.36"/>
<ellipse id="XMLID_145_" fill="#FFFFFF" stroke="#4869A8" stroke-width="4" stroke-miterlimit="10" cx="1554.415" cy="53.021" rx="14.585" ry="12.36"/>
<ellipse id="XMLID_141_" fill="#FFFFFF" stroke="#4869A8" stroke-width="4" stroke-miterlimit="10" cx="1584.79" cy="72.398" rx="12.96" ry="10.983"/>
<path id="XMLID_134_" fill="#FFFFFF" stroke="#4869A8" stroke-width="4" stroke-miterlimit="10" d="M1690.25,84
	c0,20.711-19.811,37.5-44.25,37.5s-44.25-16.789-44.25-37.5s19.811-37.5,44.25-37.5S1690.25,63.289,1690.25,84z"/>
<path id="XMLID_123_" fill="#FFFFFF" stroke="#4869A8" stroke-width="5" stroke-miterlimit="10" d="M1440.25,40
	c0,20.711-19.811,37.5-44.25,37.5s-44.25-16.789-44.25-37.5S1371.561,2.5,1396,2.5S1440.25,19.289,1440.25,40z"/>
<ellipse id="XMLID_119_" fill="#FFFFFF" stroke="#4869A8" stroke-width="4" stroke-miterlimit="10" cx="1596.79" cy="52.398" rx="12.96" ry="10.983"/>
<ellipse id="XMLID_110_" fill="#FFFFFF" stroke="#4869A8" stroke-width="4" stroke-miterlimit="10" cx="1608.79" cy="72.398" rx="12.96" ry="10.983"/>
<ellipse id="XMLID_87_" fill="#FFFFFF" stroke="#4869A8" stroke-width="4" stroke-miterlimit="10" cx="1675.54" cy="124.678" rx="19.71" ry="16.703"/>
<ellipse id="XMLID_35_" fill="#FFFFFF" stroke="#4869A8" stroke-width="4" stroke-miterlimit="10" cx="1639.54" cy="180.678" rx="19.71" ry="16.703"/>
<ellipse id="XMLID_8_" fill="#FFFFFF" stroke="#4869A8" stroke-width="4" stroke-miterlimit="10" cx="1642.074" cy="117.615" rx="16.244" ry="13.766"/>
<g id="XMLID_1_">
	<g>
		<path fill="#224A96" d="M1759.228,199.828c0,5.947-1.487,11.489-4.461,16.624c-2.974,5.136-7.028,9.183-12.163,12.142
			c-5.136,2.96-10.678,4.439-16.625,4.439c-5.918,0-11.445-1.479-16.58-4.439c-5.136-2.959-9.19-7.006-12.164-12.142
			c-2.974-5.135-4.46-10.677-4.46-16.624c0-5.919,1.486-11.452,4.46-16.603c2.974-5.149,7.028-9.204,12.164-12.163
			c5.135-2.96,10.662-4.439,16.58-4.439c5.947,0,11.489,1.479,16.625,4.439c5.135,2.959,9.189,7.014,12.163,12.163
			C1757.74,188.376,1759.228,193.909,1759.228,199.828z M1752.786,199.828c0-7.398-2.618-13.716-7.854-18.952
			c-5.237-5.237-11.555-7.855-18.953-7.855c-7.397,0-13.716,2.618-18.952,7.855c-5.237,5.236-7.855,11.554-7.855,18.952
			s2.618,13.716,7.855,18.952c5.236,5.237,11.555,7.855,18.952,7.855c7.398,0,13.716-2.618,18.953-7.855
			C1750.168,213.544,1752.786,207.227,1752.786,199.828z M1710.922,182.072h15.884c4.497,0,7.753,0.907,9.771,2.72
			c2.016,1.813,3.024,4.243,3.024,7.29c0,2.379-0.77,4.438-2.307,6.18c-1.538,1.74-3.96,3.002-7.268,3.786
			c1.363,0.521,2.364,1.073,3.003,1.653c0.898,0.813,1.842,2.017,2.828,3.612c0.059,0.116,1.973,3.54,5.745,10.271h-10.444
			c-3.395-6.76-5.673-10.8-6.833-12.12c-1.161-1.32-2.321-1.98-3.481-1.98c-0.261,0-0.624,0.044-1.088,0.131v13.97h-8.834V182.072z
			 M1719.756,197.13h3.83c2.552,0,4.352-0.413,5.396-1.24c1.045-0.827,1.567-1.894,1.567-3.198c0-1.306-0.501-2.372-1.502-3.199
			s-2.705-1.24-5.113-1.24h-4.178V197.13z"/>
	</g>
</g>
</svg>