<?xml version="1.0" encoding="utf-8"?>
<!-- Generator: Adobe Illustrator 20.0.0, SVG Export Plug-In . SVG Version: 6.00 Build 0)  -->
<svg version="1.1" id="Capa_1" xmlns="http://www.w3.org/2000/svg" xmlns:xlink="http://www.w3.org/1999/xlink" x="0px" y="0px"
	 viewBox="0 0 574 152" style="enable-background:new 0 0 574 152;" xml:space="preserve">
<style type="text/css">
	.st0{fill:#FFFFFF;}
</style>
<path class="st0" d="M128.4,53.7L93,53.5c-0.2,0-0.3,0.1-0.4,0.3L86,73.9c-0.1,0.2,0.1,0.5,0.4,0.5l13.9,0c0.1,0,0.2,0,0.2-0.1
	l28-20.2C128.8,54,128.7,53.7,128.4,53.7z M120.1,57.8L120.1,57.8L120.1,57.8L120.1,57.8z"/>
<path class="st0" d="M72.3,77.2l-2-6.1c-0.1-0.2-0.4-0.3-0.6-0.2l-11.5,8.3c-0.1,0-0.1,0.1-0.1,0.2L47.5,112
	c-0.1,0.2,0.2,0.4,0.4,0.3l28.8-20.8c0.1-0.1,0.2-0.3,0.1-0.4L72.3,77.2"/>
<path class="st0" d="M77.1,78.2c-0.3,0-0.4,0.2-0.4,0.5l3.5,10.9l0,0L81,92c0,0.1,0.1,0.1,0.1,0.2l27.9,20.4c0.2,0.1,0.5,0,0.4-0.3
	L98.6,78.4c0-0.2-0.2-0.3-0.4-0.3l-15,0L77.1,78.2z"/>
<path class="st0" d="M79.5,60.5l5.2,3.8c0.2,0.1,0.5,0.1,0.6-0.2l4.4-13.3c0-0.1,0-0.2,0-0.2L79,17.5c0-0.1-0.1-0.2-0.2-0.2
	c-0.1,0-0.2,0.1-0.2,0.2L67.4,51.3c-0.1,0.2,0,0.3,0.1,0.4L79.5,60.5C79.5,60.5,79.5,60.5,79.5,60.5z"/>
<path class="st0" d="M70.3,65.9l4.7-3.4c0.2-0.1,0.2-0.5,0-0.6l-11.5-8.4c-0.1,0-0.1-0.1-0.2-0.1l-34.4-0.1h0
	c-0.2,0-0.3,0.3-0.1,0.5l28.8,21.1c0.1,0.1,0.3,0.1,0.4,0l11.1-8L70.3,65.9z"/>
<path class="st0" d="M78.8,64.8l4.4,3.2c0.2,0.1,0.2,0.4,0.2,0.6l-1.7,5.2c-0.1,0.2-0.3,0.3-0.5,0.3h-5.5c-0.2,0-0.4-0.1-0.5-0.3
	l-1.7-5.2c-0.1-0.2,0-0.4,0.2-0.6l4.4-3.2C78.4,64.7,78.6,64.7,78.8,64.8z"/>
<g>
	<path class="st0" d="M324.2,55.6h23.7c3.4,0,6.3,0.9,8.6,2.6c2.3,1.7,4.1,4,5.2,6.8c1.2,2.7,1.5,5.6,0.9,8.7
		c-0.7,3.1-2.3,5.6-5,7.5c3,1.3,5.3,3.2,6.7,5.8c1.4,2.6,2.2,5.4,2.2,8.3c0,4.6-1.5,8.6-4.4,12.1c-2.9,3.4-7,5.1-12.1,5.1h-25.7
		V55.6z M332.3,63.5v14.8h15.4c1.7,0,3.1-0.5,4.3-1.5c1.2-1,1.9-2.2,2.2-3.7c0.3-1.5,0.3-2.9,0-4.4c-0.2-1.5-1-2.7-2.1-3.7
		c-1.2-1-2.6-1.5-4.3-1.5H332.3z M332.3,86.4v18.2h17.6c2.6,0,4.6-0.9,6.1-2.7c1.5-1.8,2.2-3.9,2.2-6.4c0-2.4-0.7-4.6-2.2-6.4
		c-1.5-1.8-3.5-2.7-6.1-2.7H332.3z"/>
	<path class="st0" d="M381.2,87.6v-3.9h9.6c3.3,0,5.8-1,7.6-2.9c1.8-1.9,2.7-4.2,2.7-6.9c0-1.6-0.4-3.2-1.1-4.6
		c-1.8-3.6-4.9-5.4-9.3-5.4h-12.6v48.7H370v-57h20.8c5.9,0,10.4,1.8,13.7,5.4c3.3,3.6,4.9,7.9,4.9,12.7c0,4.2-1.3,8-3.9,11.3
		c-2.6,3.3-6.2,5.3-10.9,6.1l18,21.4H402L381.2,87.6z"/>
	<path class="st0" d="M451.4,112.6l-6.8-16.8h-20.4c-3.1,7.5-5.4,13.1-6.8,16.8h-8.9l22.9-57.7h6l22.9,57.7H451.4z M434.4,67.9
		l-7.2,20.1h14.2L434.4,67.9z"/>
	<path class="st0" d="M469.3,112.6h-8.2V55.5l6.4,0.1l27.8,40.2V55.6h8.1v57h-6.5l-27.5-39.8V112.6z"/>
	<path class="st0" d="M509.1,55.6h20.4c4.5,0,8.6,0.8,12.2,2.4c3.6,1.6,6.6,3.8,8.8,6.5c2.3,2.7,4,5.7,5.2,9.1
		c1.2,3.4,1.8,6.9,1.8,10.5c0,3.6-0.6,7.1-1.8,10.5c-1.2,3.3-2.9,6.4-5.2,9.1c-2.3,2.7-5.2,4.9-8.8,6.5c-3.6,1.6-7.7,2.4-12.2,2.4
		h-20.4V55.6z M517.3,104.3h12.2c6.2,0,11.1-2,14.6-6c3.5-4,5.3-8.7,5.3-14.2c0-5.5-1.8-10.2-5.3-14.3c-3.5-4-8.4-6-14.6-6h-12.2
		V104.3z"/>
</g>
<g>
	<path class="st0" d="M170.2,111.8c-3.5,1.3-7.6,1.9-12.4,1.9c-14.7,0-24.2-7-28.4-20.9l5.5-1.9c3.1,11.5,10.8,17.3,22.9,17.3
		c6.9,0,12.4-1.7,16.3-5.1c4-3.5,6.1-8.6,6.1-15.4c0-6.4-2.4-11.7-7.1-15.9c-1.3-1.2-3.2-2.5-5.8-3.9c-2.6-1.4-5.9-3.1-10-4.9
		c-7.6-3.4-12.8-6.4-15.6-8.9c-4.7-4-7-9.4-7-16c0-6.6,2.4-12,7.1-16c4.7-4.1,10.4-6.2,17.3-6.2c11.3,0,19.3,4.2,24,12.7l-5.3,2.3
		c-1.8-3-4-5.2-6.5-6.6c-3.1-2-7.2-3-12.3-3c-5.3,0-9.7,1.5-13.2,4.4c-3.8,3.1-5.7,7.3-5.7,12.4c0,4.6,2,8.6,5.9,12
		c2.2,1.8,6.7,4.2,13.5,7.3c4.2,1.9,7.9,3.8,10.9,5.6c3.1,1.8,5.5,3.7,7.4,5.6c5.2,5.1,7.8,11.5,7.8,19.1
		C185.7,99.9,180.5,107.9,170.2,111.8z"/>
	<path class="st0" d="M200.1,62.4v50.1h-5.5V62.4H187v-5.5h7.5V32.5h5.5v24.4h12.9v5.5H200.1z"/>
	<path class="st0" d="M265.9,112.6V103c-5.8,7-13.3,10.5-22.2,10.5c-8.1,0-14.9-2.7-20.4-8.2c-5.6-5.6-8.4-12.4-8.4-20.5
		s2.7-14.9,8.2-20.4c5.6-5.6,12.4-8.4,20.5-8.4c8.9,0,16.3,3.5,22.2,10.5v-9.7h5.5v55.7H265.9z M260.1,68.4
		c-4.6-4.6-10.1-6.9-16.4-6.9c-7.8,0-14.2,3.3-19.1,9.8c-2.1,2.8-3.5,6.2-4,9.7c-1.1,8.1,1.1,14.8,6.6,20.3
		c4.6,4.6,10.1,6.9,16.4,6.9c6.5,0,11.9-2.2,16.4-6.7c4.4-4.4,6.9-10.5,6.9-16.7C266.9,78.4,264.6,72.9,260.1,68.4z"/>
	<path class="st0" d="M314.1,65.1c-1.4-1.1-3-1.9-4.6-2.6c-1.6-0.6-3.3-0.9-5.1-0.9c-1.5,0-3,0.5-4.3,1.4c-1.3,0.9-2.5,2.1-3.5,3.5
		c-1,1.4-1.8,2.9-2.4,4.7c-0.6,1.7-0.9,3.3-0.9,4.7v36.7h-5.5V56.9h5.5v7.5c1.2-2.1,2.7-4,4.6-5.7c1.9-1.7,4-2.6,6.2-2.6
		c2.8,0,5.1,0.3,6.9,0.9c1.8,0.6,3.8,1.8,6.1,3.4L314.1,65.1z"/>
</g>
</svg>
