<?xml version="1.0" encoding="utf-8"?>
<!-- Generator: Adobe Illustrator 21.1.0, SVG Export Plug-In . SVG Version: 6.00 Build 0)  -->
<svg version="1.1" id="Capa_1" xmlns="http://www.w3.org/2000/svg" xmlns:xlink="http://www.w3.org/1999/xlink" x="0px" y="0px"
	 viewBox="0 0 524.7 196.8" style="enable-background:new 0 0 524.7 196.8;" xml:space="preserve">
<style type="text/css">
	.st0{fill:#8E8E8E;}
</style>
<g>
	<g>
		<path class="st0" d="M300.9,90.3h20.9c3,0,5.6,0.8,7.6,2.3c2.1,1.5,3.6,3.5,4.6,6c1.1,2.4,1.4,4.9,0.8,7.6
			c-0.6,2.7-2.1,4.9-4.5,6.6c2.7,1.1,4.7,2.9,5.9,5.1c1.3,2.3,1.9,4.7,1.9,7.4c0,4.1-1.3,7.6-3.9,10.6c-2.6,3-6.2,4.5-10.7,4.5
			h-22.7V90.3z M308.1,97.2v13.1h13.6c1.5,0,2.8-0.4,3.8-1.3c1.1-0.9,1.7-2,1.9-3.3c0.2-1.3,0.3-2.6,0-3.9c-0.2-1.3-0.8-2.4-1.9-3.3
			c-1-0.9-2.3-1.3-3.8-1.3H308.1z M308.1,117.4v16h15.5c2.3,0,4.1-0.8,5.4-2.4c1.3-1.6,1.9-3.5,1.9-5.6c0-2.2-0.6-4-1.9-5.6
			c-1.3-1.6-3.1-2.4-5.4-2.4H308.1z"/>
	</g>
	<g>
		<path class="st0" d="M351.2,118.4V115h8.5c2.9,0,5.1-0.9,6.7-2.6c1.6-1.7,2.4-3.7,2.4-6.1c0-1.4-0.3-2.8-0.9-4.1
			c-1.6-3.2-4.3-4.7-8.2-4.7h-11.1v42.9h-7.2V90.2h18.3c5.2,0,9.2,1.6,12.1,4.8c2.9,3.2,4.3,6.9,4.3,11.2c0,3.7-1.1,7-3.4,9.9
			c-2.3,2.9-5.5,4.7-9.6,5.4l15.9,18.9h-9.4L351.2,118.4z"/>
	</g>
	<g>
		<path class="st0" d="M413.1,140.4l-6-14.8h-18c-2.8,6.6-4.8,11.5-6,14.8h-7.8l20.2-50.9h5.3l20.2,50.9H413.1z M398.1,101.1
			l-6.3,17.7h12.5L398.1,101.1z"/>
	</g>
	<g>
		<path class="st0" d="M428.9,140.4h-7.3V90.1l5.6,0.1l24.5,35.4V90.2h7.2v50.3h-5.7l-24.3-35.1V140.4z"/>
	</g>
	<g>
		<path class="st0" d="M463.9,90.3h18c4,0,7.6,0.7,10.8,2.2c3.2,1.4,5.8,3.3,7.8,5.7c2,2.4,3.5,5,4.6,8c1.1,3,1.6,6.1,1.6,9.3
			s-0.5,6.3-1.6,9.2c-1.1,2.9-2.6,5.6-4.6,8c-2,2.4-4.6,4.3-7.8,5.7c-3.2,1.4-6.8,2.1-10.8,2.1h-18V90.3z M471.2,133.2H482
			c5.5,0,9.8-1.8,12.9-5.3c3.1-3.5,4.6-7.7,4.6-12.5c0-4.8-1.5-9-4.6-12.6c-3.1-3.5-7.4-5.3-12.9-5.3h-10.8V133.2z"/>
	</g>
</g>
<g>
	<g>
		<path class="st0" d="M165.2,139.7c-3.1,1.1-6.7,1.7-10.9,1.7c-13,0-21.3-6.1-25.1-18.4l4.9-1.7c2.8,10.1,9.5,15.2,20.2,15.2
			c6.1,0,10.9-1.5,14.4-4.5c3.6-3.1,5.3-7.6,5.3-13.5c0-5.6-2.1-10.3-6.3-14c-1.1-1-2.8-2.2-5.1-3.4c-2.3-1.3-5.2-2.7-8.8-4.3
			c-6.7-3-11.3-5.6-13.8-7.8c-4.1-3.6-6.2-8.3-6.2-14.1c0-5.9,2.1-10.6,6.3-14.1c4.1-3.6,9.2-5.5,15.2-5.5c10,0,17,3.7,21.1,11.2
			l-4.6,2c-1.6-2.6-3.5-4.6-5.7-5.8c-2.8-1.7-6.4-2.6-10.8-2.6c-4.7,0-8.6,1.3-11.6,3.9c-3.3,2.8-5,6.4-5,10.9c0,4,1.7,7.6,5.2,10.6
			c2,1.6,5.9,3.7,11.9,6.4c3.7,1.7,6.9,3.3,9.6,4.9c2.7,1.6,4.9,3.3,6.5,4.9c4.6,4.5,6.9,10.1,6.9,16.9
			C178.8,129.2,174.3,136.3,165.2,139.7z"/>
	</g>
	<g>
		<path class="st0" d="M191.6,96.2v44.2h-4.9V96.2H180v-4.9h6.7V69.9h4.9v21.5H203v4.9H191.6z"/>
	</g>
	<g>
		<path class="st0" d="M249.5,140.4V132c-5.1,6.2-11.7,9.3-19.6,9.3c-7.1,0-13.1-2.4-17.9-7.2c-4.9-4.9-7.4-10.9-7.4-18.1
			s2.4-13.1,7.2-17.9c4.9-4.9,10.9-7.4,18.1-7.4c7.8,0,14.4,3.1,19.6,9.3v-8.6h4.9v49.1H249.5z M244.4,101.5c-4-4-8.9-6.1-14.5-6.1
			c-6.9,0-12.5,2.9-16.8,8.6c-1.9,2.5-3.1,5.4-3.5,8.5c-0.9,7.1,1,13.1,5.8,17.9c4,4,8.9,6.1,14.5,6.1c5.7,0,10.5-2,14.5-5.9
			c3.9-3.9,6.1-9.2,6.1-14.7C250.5,110.3,248.4,105.5,244.4,101.5z"/>
	</g>
	<g>
		<path class="st0" d="M292.1,98.6c-1.3-0.9-2.6-1.7-4-2.3c-1.4-0.6-2.9-0.8-4.5-0.8c-1.3,0-2.6,0.4-3.8,1.2
			c-1.2,0.8-2.2,1.9-3.1,3.1c-0.9,1.2-1.6,2.6-2.1,4.1c-0.5,1.5-0.8,2.9-0.8,4.2v32.3h-4.9V91.4h4.9V98c1-1.8,2.4-3.5,4-5
			c1.7-1.5,3.5-2.3,5.5-2.3c2.5,0,4.5,0.3,6.1,0.8c1.6,0.6,3.4,1.5,5.3,3L292.1,98.6z"/>
	</g>
</g>
<g>
	<path class="st0" d="M129.7,86.2L92.3,84l-8.5,25.8l18.1,0l28-23.1C130.1,86.6,130,86.2,129.7,86.2z M126.3,89.4l0.1,0l0,0H126.3z"
		/>
</g>
<path class="st0" d="M67,113.3l-2.6-8.1l-14.8,10.7l-9,34.9c-0.1,0.3,0.2,0.5,0.5,0.3l31.6-20.3L67,113.3"/>
<g>
	<path class="st0" d="M72.4,114.5l4.5,14.1l0,0l1,3.1l30.3,19.4c0.2,0.2,0.6-0.1,0.5-0.3l-9.3-36.2l-18.9,0L72.4,114.5z"/>
</g>
<g>
	<path class="st0" d="M76,92.6l6.9,5l5.6-17.2L75,46.6c0-0.1-0.2-0.2-0.3-0.2c-0.1,0-0.2,0.1-0.3,0.2l-13.5,35L76,92.6
		C75.9,92.6,76,92.6,76,92.6z"/>
</g>
<path class="st0" d="M64.6,99.3l6.3-4.6L56.1,83.9l-36.2,2.3h0c-0.3,0-0.4,0.4-0.2,0.6L49,110.6l14-10.1L64.6,99.3z"/>
<g>
	<path class="st0" d="M74.8,97.9l6,4.4c0.1,0,0.1,0.1,0.1,0.2l-2.3,7.1c0,0.1-0.1,0.1-0.2,0.1H71c-0.1,0-0.1,0-0.2-0.1l-2.3-7.1
		c0-0.1,0-0.1,0.1-0.2l6-4.4C74.7,97.8,74.7,97.8,74.8,97.9z"/>
</g>
<g>
	<path class="st0" d="M202,71.3V52.2h6.9c1.6,0,2.9,0.3,4.1,0.8s2.2,1.2,2.9,2c0.8,0.9,1.4,1.9,1.8,3s0.6,2.4,0.6,3.7
		c0,1.5-0.2,2.8-0.7,3.9c-0.4,1.2-1.1,2.2-1.9,3c-0.8,0.8-1.8,1.5-3,1.9c-1.2,0.5-2.5,0.7-3.9,0.7H202z M214.6,61.7
		c0-0.9-0.1-1.8-0.4-2.5c-0.3-0.8-0.6-1.4-1.1-2c-0.5-0.6-1.1-1-1.8-1.3c-0.7-0.3-1.5-0.5-2.4-0.5h-3.2v12.6h3.2
		c0.9,0,1.7-0.2,2.4-0.5c0.7-0.3,1.3-0.8,1.8-1.3c0.5-0.6,0.8-1.2,1.1-2S214.6,62.6,214.6,61.7z"/>
	<path class="st0" d="M236.1,68.1v3.3h-13.3V52.2h13v3.3h-9.3v4.6h8v3h-8v5H236.1z"/>
	<path class="st0" d="M251.6,57.2c-0.1-0.1-0.4-0.3-0.7-0.5c-0.3-0.2-0.7-0.4-1.2-0.6c-0.5-0.2-1-0.4-1.5-0.5
		c-0.6-0.1-1.1-0.2-1.7-0.2c-1,0-1.8,0.2-2.3,0.6s-0.8,0.9-0.8,1.6c0,0.4,0.1,0.7,0.3,1c0.2,0.3,0.5,0.5,0.8,0.7
		c0.4,0.2,0.8,0.4,1.4,0.5c0.5,0.2,1.2,0.3,1.9,0.5c0.9,0.3,1.8,0.5,2.5,0.8c0.8,0.3,1.4,0.6,1.9,1.1c0.5,0.4,0.9,0.9,1.2,1.5
		c0.3,0.6,0.4,1.3,0.4,2.2c0,1-0.2,1.9-0.6,2.6c-0.4,0.7-0.9,1.3-1.6,1.8c-0.7,0.4-1.4,0.8-2.3,1c-0.9,0.2-1.7,0.3-2.7,0.3
		c-1.4,0-2.9-0.2-4.2-0.6s-2.7-1-3.8-1.8l1.6-3.2c0.2,0.2,0.5,0.4,0.9,0.6s0.9,0.5,1.5,0.8s1.2,0.5,1.9,0.7c0.7,0.2,1.4,0.3,2.2,0.3
		c2,0,3.1-0.7,3.1-2c0-0.4-0.1-0.8-0.3-1c-0.2-0.3-0.6-0.5-1-0.8s-1-0.4-1.6-0.6c-0.6-0.2-1.3-0.4-2-0.6c-0.9-0.3-1.7-0.5-2.4-0.8
		s-1.2-0.6-1.7-1c-0.4-0.4-0.8-0.9-1-1.4s-0.3-1.2-0.3-1.9c0-1,0.2-1.8,0.5-2.6c0.4-0.8,0.9-1.4,1.5-1.9s1.4-0.9,2.2-1.1
		c0.8-0.3,1.7-0.4,2.7-0.4c1.3,0,2.6,0.2,3.7,0.6s2.1,0.9,3,1.5L251.6,57.2z"/>
	<path class="st0" d="M263.4,52.2h3.3l7.3,19.1h-3.8l-1.8-4.8h-6.7l-1.7,4.8h-3.8L263.4,52.2z M267.7,64l-2.6-7.5l-2.7,7.5H267.7z"
		/>
	<path class="st0" d="M277.7,71.3V52.2h8.4c0.9,0,1.7,0.2,2.4,0.6c0.7,0.4,1.4,0.9,1.9,1.5c0.5,0.6,1,1.3,1.3,2
		c0.3,0.8,0.5,1.5,0.5,2.3c0,1.2-0.3,2.4-0.9,3.4c-0.6,1-1.5,1.7-2.5,2.2l4.4,7.2H289l-3.9-6.4h-3.7v6.4H277.7z M281.4,61.7h4.7
		c0.3,0,0.7-0.1,1-0.2c0.3-0.2,0.6-0.4,0.8-0.7c0.2-0.3,0.4-0.6,0.5-1s0.2-0.8,0.2-1.2c0-0.4-0.1-0.9-0.2-1.2
		c-0.1-0.4-0.3-0.7-0.6-1c-0.2-0.3-0.5-0.5-0.8-0.6c-0.3-0.2-0.6-0.2-1-0.2h-4.5V61.7z"/>
	<path class="st0" d="M297.2,71.3V52.2h8.4c0.9,0,1.7,0.2,2.4,0.6c0.7,0.4,1.4,0.9,1.9,1.5c0.5,0.6,1,1.3,1.3,2
		c0.3,0.8,0.5,1.5,0.5,2.3c0,1.2-0.3,2.4-0.9,3.4c-0.6,1-1.5,1.7-2.5,2.2l4.4,7.2h-4.2l-3.9-6.4h-3.7v6.4H297.2z M300.9,61.7h4.7
		c0.3,0,0.7-0.1,1-0.2c0.3-0.2,0.6-0.4,0.8-0.7c0.2-0.3,0.4-0.6,0.5-1s0.2-0.8,0.2-1.2c0-0.4-0.1-0.9-0.2-1.2
		c-0.1-0.4-0.3-0.7-0.6-1c-0.2-0.3-0.5-0.5-0.8-0.6c-0.3-0.2-0.6-0.2-1-0.2h-4.5V61.7z"/>
	<path class="st0" d="M324.8,71.5c-1.4,0-2.7-0.3-3.8-0.8s-2.1-1.3-2.9-2.2c-0.8-0.9-1.4-1.9-1.9-3.1s-0.7-2.4-0.7-3.6
		c0-1.3,0.2-2.5,0.7-3.7c0.5-1.2,1.1-2.2,2-3.1s1.8-1.6,3-2.1c1.1-0.5,2.4-0.8,3.7-0.8c1.4,0,2.6,0.3,3.8,0.8
		c1.1,0.6,2.1,1.3,2.9,2.2c0.8,0.9,1.4,2,1.9,3.1c0.4,1.2,0.7,2.3,0.7,3.6c0,1.3-0.2,2.5-0.7,3.6c-0.5,1.2-1.1,2.2-1.9,3.1
		c-0.8,0.9-1.8,1.6-3,2.1S326.2,71.5,324.8,71.5z M319.3,61.8c0,0.8,0.1,1.6,0.4,2.4c0.3,0.8,0.6,1.5,1.1,2c0.5,0.6,1.1,1.1,1.7,1.4
		c0.7,0.4,1.5,0.5,2.4,0.5c0.9,0,1.7-0.2,2.4-0.6c0.7-0.4,1.3-0.9,1.7-1.5c0.5-0.6,0.8-1.3,1.1-2.1c0.2-0.8,0.4-1.5,0.4-2.3
		c0-0.8-0.1-1.6-0.4-2.4c-0.3-0.8-0.6-1.5-1.1-2c-0.5-0.6-1.1-1.1-1.7-1.4c-0.7-0.3-1.5-0.5-2.3-0.5c-0.9,0-1.7,0.2-2.4,0.6
		c-0.7,0.4-1.3,0.9-1.7,1.5c-0.5,0.6-0.8,1.3-1.1,2C319.4,60.2,319.3,61,319.3,61.8z"/>
	<path class="st0" d="M338.6,71.3V52.2h3.7v15.8h9.7v3.3H338.6z"/>
	<path class="st0" d="M356,71.3V52.2h3.7v15.8h9.7v3.3H356z"/>
	<path class="st0" d="M378.7,52.2h3.3l7.3,19.1h-3.8l-1.8-4.8H377l-1.7,4.8h-3.8L378.7,52.2z M383,64l-2.6-7.5l-2.7,7.5H383z"/>
	<path class="st0" d="M393,71.3V52.2h6.9c1.6,0,2.9,0.3,4.1,0.8c1.2,0.5,2.2,1.2,2.9,2c0.8,0.9,1.4,1.9,1.8,3
		c0.4,1.2,0.6,2.4,0.6,3.7c0,1.5-0.2,2.8-0.7,3.9c-0.4,1.2-1.1,2.2-1.9,3c-0.8,0.8-1.8,1.5-3,1.9c-1.2,0.5-2.5,0.7-3.9,0.7H393z
		 M405.6,61.7c0-0.9-0.1-1.8-0.4-2.5c-0.3-0.8-0.6-1.4-1.1-2c-0.5-0.6-1.1-1-1.8-1.3c-0.7-0.3-1.5-0.5-2.4-0.5h-3.2v12.6h3.2
		c0.9,0,1.7-0.2,2.4-0.5s1.3-0.8,1.8-1.3c0.5-0.6,0.8-1.2,1.1-2S405.6,62.6,405.6,61.7z"/>
	<path class="st0" d="M422,71.5c-1.4,0-2.7-0.3-3.8-0.8s-2.1-1.3-2.9-2.2c-0.8-0.9-1.4-1.9-1.9-3.1s-0.7-2.4-0.7-3.6
		c0-1.3,0.2-2.5,0.7-3.7c0.5-1.2,1.1-2.2,2-3.1s1.8-1.6,3-2.1c1.1-0.5,2.4-0.8,3.7-0.8c1.4,0,2.6,0.3,3.8,0.8
		c1.1,0.6,2.1,1.3,2.9,2.2c0.8,0.9,1.4,2,1.9,3.1c0.4,1.2,0.7,2.3,0.7,3.6c0,1.3-0.2,2.5-0.7,3.6c-0.5,1.2-1.1,2.2-1.9,3.1
		c-0.8,0.9-1.8,1.6-3,2.1S423.3,71.5,422,71.5z M416.4,61.8c0,0.8,0.1,1.6,0.4,2.4c0.3,0.8,0.6,1.5,1.1,2c0.5,0.6,1.1,1.1,1.7,1.4
		c0.7,0.4,1.5,0.5,2.4,0.5c0.9,0,1.7-0.2,2.4-0.6c0.7-0.4,1.3-0.9,1.7-1.5c0.5-0.6,0.8-1.3,1.1-2.1c0.2-0.8,0.4-1.5,0.4-2.3
		c0-0.8-0.1-1.6-0.4-2.4c-0.3-0.8-0.6-1.5-1.1-2c-0.5-0.6-1.1-1.1-1.7-1.4c-0.7-0.3-1.5-0.5-2.3-0.5c-0.9,0-1.7,0.2-2.4,0.6
		c-0.7,0.4-1.3,0.9-1.7,1.5c-0.5,0.6-0.8,1.3-1.1,2C416.6,60.2,416.4,61,416.4,61.8z"/>
	<path class="st0" d="M443.8,71.3V52.2h8.1c0.9,0,1.7,0.2,2.4,0.6c0.7,0.4,1.4,0.9,1.9,1.5c0.5,0.6,1,1.3,1.3,2
		c0.3,0.8,0.5,1.5,0.5,2.3c0,0.8-0.1,1.6-0.4,2.4c-0.3,0.8-0.7,1.4-1.2,2c-0.5,0.6-1.1,1.1-1.9,1.4c-0.7,0.4-1.5,0.5-2.4,0.5h-4.5
		v6.4H443.8z M447.5,61.7h4.3c0.7,0,1.3-0.3,1.7-0.8s0.7-1.3,0.7-2.3c0-0.5-0.1-0.9-0.2-1.3c-0.1-0.4-0.3-0.7-0.6-1
		c-0.2-0.3-0.5-0.5-0.8-0.6c-0.3-0.1-0.6-0.2-1-0.2h-4.1V61.7z"/>
	<path class="st0" d="M470.4,71.5c-1.4,0-2.7-0.3-3.8-0.8s-2.1-1.3-2.9-2.2c-0.8-0.9-1.4-1.9-1.9-3.1S461,63,461,61.8
		c0-1.3,0.2-2.5,0.7-3.7c0.5-1.2,1.1-2.2,2-3.1s1.8-1.6,3-2.1c1.1-0.5,2.4-0.8,3.7-0.8c1.4,0,2.6,0.3,3.8,0.8
		c1.1,0.6,2.1,1.3,2.9,2.2c0.8,0.9,1.4,2,1.9,3.1c0.4,1.2,0.7,2.3,0.7,3.6c0,1.3-0.2,2.5-0.7,3.6c-0.5,1.2-1.1,2.2-1.9,3.1
		c-0.8,0.9-1.8,1.6-3,2.1S471.7,71.5,470.4,71.5z M464.8,61.8c0,0.8,0.1,1.6,0.4,2.4c0.3,0.8,0.6,1.5,1.1,2c0.5,0.6,1.1,1.1,1.7,1.4
		c0.7,0.4,1.5,0.5,2.4,0.5c0.9,0,1.7-0.2,2.4-0.6c0.7-0.4,1.3-0.9,1.7-1.5c0.5-0.6,0.8-1.3,1.1-2.1c0.2-0.8,0.4-1.5,0.4-2.3
		c0-0.8-0.1-1.6-0.4-2.4c-0.3-0.8-0.6-1.5-1.1-2c-0.5-0.6-1.1-1.1-1.7-1.4c-0.7-0.3-1.5-0.5-2.3-0.5c-0.9,0-1.7,0.2-2.4,0.6
		c-0.7,0.4-1.3,0.9-1.7,1.5c-0.5,0.6-0.8,1.3-1.1,2C464.9,60.2,464.8,61,464.8,61.8z"/>
	<path class="st0" d="M484.1,71.3V52.2h8.4c0.9,0,1.7,0.2,2.4,0.6c0.7,0.4,1.4,0.9,1.9,1.5c0.5,0.6,1,1.3,1.3,2
		c0.3,0.8,0.5,1.5,0.5,2.3c0,1.2-0.3,2.4-0.9,3.4c-0.6,1-1.5,1.7-2.5,2.2l4.4,7.2h-4.2l-3.9-6.4h-3.7v6.4H484.1z M487.9,61.7h4.7
		c0.3,0,0.7-0.1,1-0.2c0.3-0.2,0.6-0.4,0.8-0.7c0.2-0.3,0.4-0.6,0.5-1s0.2-0.8,0.2-1.2c0-0.4-0.1-0.9-0.2-1.2
		c-0.1-0.4-0.3-0.7-0.6-1c-0.2-0.3-0.5-0.5-0.8-0.6c-0.3-0.2-0.6-0.2-1-0.2h-4.5V61.7z"/>
</g>
</svg>
